<?xml version="1.0" encoding="UTF-8"?>
<svg xmlns="http://www.w3.org/2000/svg" xmlns:xlink="http://www.w3.org/1999/xlink" width="888px" height="336px" viewBox="0 0 666 252" version="1.1">
<g id="surface1">
<path style=" stroke:none;fill-rule:evenodd;fill:rgb(99.607843%,99.607843%,99.607843%);fill-opacity:1;" d="M -0.375 -0.375 C 221.625 -0.375 443.625 -0.375 665.625 -0.375 C 665.625 83.625 665.625 167.625 665.625 251.625 C 443.625 251.625 221.625 251.625 -0.375 251.625 C -0.375 167.625 -0.375 83.625 -0.375 -0.375 Z M -0.375 -0.375 "/>
<path style=" stroke:none;fill-rule:evenodd;fill:rgb(55.686275%,77.254902%,80.784314%);fill-opacity:1;" d="M 58.125 30.375 C 59.359375 30.214844 60.484375 30.464844 61.5 31.125 C 62.972656 35.554688 64.722656 39.804688 66.75 43.875 C 82.074219 86.597656 97.824219 129.097656 114 171.375 C 114.75 172.375 115.5 173.375 116.25 174.375 C 117.910156 179.238281 119.785156 183.988281 121.875 188.625 C 159.082031 175.054688 196.082031 161.304688 232.875 147.375 C 233.734375 147.613281 234.359375 148.113281 234.75 148.875 C 237.125 155.5 239.5 162.125 241.875 168.75 C 204.980469 182.933594 167.730469 196.808594 130.125 210.375 C 133.316406 224.617188 128.316406 234.992188 115.125 241.5 C 99.875 244.914062 89.5 239.289062 84 224.625 C 82.589844 217.550781 83.839844 211.050781 87.75 205.125 C 91.097656 201.539062 94.726562 198.414062 98.625 195.75 C 80.796875 149.222656 63.296875 102.601562 46.125 55.875 C 34.082031 56.753906 22.082031 58.003906 10.125 59.625 C 9.953125 52.1875 9.203125 44.8125 7.875 37.5 C 7.984375 36.921875 8.234375 36.421875 8.625 36 C 25.21875 33.976562 41.71875 32.101562 58.125 30.375 Z M 58.125 30.375 "/>
<path style=" stroke:none;fill-rule:evenodd;fill:rgb(52.156863%,51.764706%,50.980392%);fill-opacity:1;" d="M 190.875 44.625 C 190.453125 43.261719 189.578125 42.261719 188.25 41.625 C 186.632812 42.207031 185.007812 42.707031 183.375 43.125 C 185.382812 41.046875 187.757812 40.546875 190.5 41.625 C 190.867188 42.59375 190.992188 43.59375 190.875 44.625 Z M 190.875 44.625 "/>
<path style=" stroke:none;fill-rule:evenodd;fill:rgb(19.607843%,18.823529%,17.254902%);fill-opacity:1;" d="M 190.875 44.625 C 191.066406 46.476562 191.816406 47.976562 193.125 49.125 C 193.125 49.375 193.125 49.625 193.125 49.875 C 192.875 52.117188 193.625 53.867188 195.375 55.125 C 200.523438 68.5625 205.523438 82.0625 210.375 95.625 C 210.566406 97.476562 211.316406 98.976562 212.625 100.125 C 212.625 100.375 212.625 100.625 212.625 100.875 C 212.828125 103.769531 213.828125 106.269531 215.625 108.375 C 219.621094 119.109375 223.621094 129.859375 227.625 140.625 C 227.386719 141.484375 226.886719 142.109375 226.125 142.5 C 221.558594 144.273438 216.929688 145.898438 212.25 147.375 C 211.671875 147.265625 211.171875 147.015625 210.75 146.625 C 205.695312 132.832031 200.570312 119.082031 195.375 105.375 C 194.550781 101.890625 193.300781 98.640625 191.625 95.625 C 185.207031 79.378906 179.207031 62.878906 173.625 46.125 C 176.996094 45.417969 180.246094 44.417969 183.375 43.125 C 185.007812 42.707031 186.632812 42.207031 188.25 41.625 C 189.578125 42.261719 190.453125 43.261719 190.875 44.625 Z M 190.875 44.625 "/>
<path style=" stroke:none;fill-rule:evenodd;fill:rgb(54.509804%,54.117647%,53.333333%);fill-opacity:1;" d="M 190.875 44.625 C 192.183594 45.773438 192.933594 47.273438 193.125 49.125 C 191.816406 47.976562 191.066406 46.476562 190.875 44.625 Z M 190.875 44.625 "/>
<path style=" stroke:none;fill-rule:evenodd;fill:rgb(21.568627%,20.784314%,19.215686%);fill-opacity:1;" d="M 166.875 49.875 C 166.757812 52.285156 167.507812 54.285156 169.125 55.875 C 169.007812 58.285156 169.757812 60.285156 171.375 61.875 C 177.421875 77.257812 183.171875 92.757812 188.625 108.375 C 188.816406 110.226562 189.566406 111.726562 190.875 112.875 C 195.585938 124.878906 200.085938 137.003906 204.375 149.25 C 203.527344 150.800781 202.152344 151.675781 200.25 151.875 C 198.335938 149.40625 196.835938 146.65625 195.75 143.625 C 191.734375 131.445312 187.359375 119.445312 182.625 107.625 C 182.433594 105.773438 181.683594 104.273438 180.375 103.125 C 180.375 102.625 180.375 102.125 180.375 101.625 C 180.183594 99.773438 179.433594 98.273438 178.125 97.125 C 172.472656 81.671875 166.976562 66.171875 161.625 50.625 C 163.355469 50.253906 165.105469 50.003906 166.875 49.875 Z M 166.875 49.875 "/>
<path style=" stroke:none;fill-rule:evenodd;fill:rgb(52.54902%,52.156863%,51.372549%);fill-opacity:1;" d="M 166.875 49.875 C 168.015625 51.667969 168.765625 53.667969 169.125 55.875 C 167.507812 54.285156 166.757812 52.285156 166.875 49.875 Z M 166.875 49.875 "/>
<path style=" stroke:none;fill-rule:evenodd;fill:rgb(58.823529%,58.431373%,57.647059%);fill-opacity:1;" d="M 265.125 59.625 C 265.125 57.625 265.125 55.625 265.125 53.625 C 258.625 53.625 252.125 53.625 245.625 53.625 C 245.625 55.375 245.625 57.125 245.625 58.875 C 244.894531 57.039062 244.644531 55.039062 244.875 52.875 C 251.875 52.875 258.875 52.875 265.875 52.875 C 266.109375 55.285156 265.859375 57.535156 265.125 59.625 Z M 265.125 59.625 "/>
<path style=" stroke:none;fill-rule:evenodd;fill:rgb(52.54902%,52.156863%,51.372549%);fill-opacity:1;" d="M 283.125 53.625 C 278.875 53.625 274.625 53.625 270.375 53.625 C 270.375 55.375 270.375 57.125 270.375 58.875 C 269.644531 57.039062 269.394531 55.039062 269.625 52.875 C 274.265625 52.632812 278.765625 52.882812 283.125 53.625 Z M 283.125 53.625 "/>
<path style=" stroke:none;fill-rule:evenodd;fill:rgb(52.941176%,52.54902%,51.764706%);fill-opacity:1;" d="M 311.625 59.625 C 311.625 57.625 311.625 55.625 311.625 53.625 C 306.625 53.625 301.625 53.625 296.625 53.625 C 296.625 55.375 296.625 57.125 296.625 58.875 C 295.894531 57.039062 295.644531 55.039062 295.875 52.875 C 301.375 52.875 306.875 52.875 312.375 52.875 C 312.609375 55.285156 312.359375 57.535156 311.625 59.625 Z M 311.625 59.625 "/>
<path style=" stroke:none;fill-rule:evenodd;fill:rgb(55.294118%,54.901961%,54.117647%);fill-opacity:1;" d="M 333.375 58.875 C 333.375 57.125 333.375 55.375 333.375 53.625 C 327.625 53.625 321.875 53.625 316.125 53.625 C 316.125 55.125 316.125 56.625 316.125 58.125 C 315.398438 56.542969 315.148438 54.792969 315.375 52.875 C 321.625 52.875 327.875 52.875 334.125 52.875 C 334.355469 55.039062 334.105469 57.039062 333.375 58.875 Z M 333.375 58.875 "/>
<path style=" stroke:none;fill-rule:evenodd;fill:rgb(52.156863%,51.764706%,50.980392%);fill-opacity:1;" d="M 357.375 53.625 C 352.125 53.625 346.875 53.625 341.625 53.625 C 341.625 55.375 341.625 57.125 341.625 58.875 C 340.894531 57.039062 340.644531 55.039062 340.875 52.875 C 346.515625 52.632812 352.015625 52.882812 357.375 53.625 Z M 357.375 53.625 "/>
<path style=" stroke:none;fill-rule:evenodd;fill:rgb(53.333333%,52.941176%,52.156863%);fill-opacity:1;" d="M 394.125 65.625 C 394.125 61.625 394.125 57.625 394.125 53.625 C 383.125 53.625 372.125 53.625 361.125 53.625 C 361.125 55.375 361.125 57.125 361.125 58.875 C 360.394531 57.039062 360.144531 55.039062 360.375 52.875 C 371.875 52.875 383.375 52.875 394.875 52.875 C 395.117188 57.269531 394.867188 61.519531 394.125 65.625 Z M 394.125 65.625 "/>
<path style=" stroke:none;fill-rule:evenodd;fill:rgb(58.431373%,58.039216%,57.647059%);fill-opacity:1;" d="M 412.875 53.625 C 408.625 53.625 404.375 53.625 400.125 53.625 C 400.125 55.375 400.125 57.125 400.125 58.875 C 399.394531 57.039062 399.144531 55.039062 399.375 52.875 C 404.015625 52.632812 408.515625 52.882812 412.875 53.625 Z M 412.875 53.625 "/>
<path style=" stroke:none;fill-rule:evenodd;fill:rgb(53.72549%,53.333333%,52.54902%);fill-opacity:1;" d="M 442.125 59.625 C 442.125 57.625 442.125 55.625 442.125 53.625 C 437.125 53.625 432.125 53.625 427.125 53.625 C 427.125 55.375 427.125 57.125 427.125 58.875 C 426.394531 57.039062 426.144531 55.039062 426.375 52.875 C 431.875 52.875 437.375 52.875 442.875 52.875 C 443.109375 55.285156 442.859375 57.535156 442.125 59.625 Z M 442.125 59.625 "/>
<path style=" stroke:none;fill-rule:evenodd;fill:rgb(56.862745%,56.470588%,56.078431%);fill-opacity:1;" d="M 485.625 54.375 C 485.375 54.375 485.125 54.375 484.875 54.375 C 472.257812 53.628906 459.507812 53.378906 446.625 53.625 C 446.625 57.875 446.625 62.125 446.625 66.375 C 448.125 66.375 449.625 66.375 451.125 66.375 C 449.542969 67.101562 447.792969 67.351562 445.875 67.125 C 445.875 62.375 445.875 57.625 445.875 52.875 C 459.398438 52.386719 472.648438 52.886719 485.625 54.375 Z M 485.625 54.375 "/>
<path style=" stroke:none;fill-rule:evenodd;fill:rgb(41.568627%,41.176471%,40%);fill-opacity:1;" d="M 515.625 52.875 C 512.144531 53.34375 508.644531 53.59375 505.125 53.625 C 508.566406 52.160156 512.066406 51.910156 515.625 52.875 Z M 515.625 52.875 "/>
<path style=" stroke:none;fill-rule:evenodd;fill:rgb(20.392157%,19.607843%,18.039216%);fill-opacity:1;" d="M 515.625 52.875 C 520.378906 65.117188 525.253906 77.367188 530.25 89.625 C 530.621094 91.359375 530.746094 93.105469 530.625 94.875 C 524.875 94.875 519.125 94.875 513.375 94.875 C 513.375 93.125 513.375 91.375 513.375 89.625 C 516.4375 89.699219 517.4375 88.449219 516.375 85.875 C 516.125 84.875 515.875 83.875 515.625 82.875 C 513.683594 81.886719 511.433594 81.386719 508.875 81.375 C 506.484375 81.375 504.234375 81.625 502.125 82.125 C 500.882812 84.066406 500.632812 86.066406 501.375 88.125 C 502.335938 89.199219 503.585938 89.699219 505.125 89.625 C 505.125 91.375 505.125 93.125 505.125 94.875 C 499.875 94.875 494.625 94.875 489.375 94.875 C 489.375 93.125 489.375 91.375 489.375 89.625 C 490.871094 86.878906 492.371094 84.128906 493.875 81.375 C 495.054688 80.171875 495.554688 78.671875 495.375 76.875 C 495.832031 76.207031 496.082031 75.457031 496.125 74.625 C 497.179688 74.269531 497.679688 73.519531 497.625 72.375 C 497.472656 69.925781 498.347656 67.925781 500.25 66.375 C 501.527344 61.902344 503.152344 57.652344 505.125 53.625 C 508.644531 53.59375 512.144531 53.34375 515.625 52.875 Z M 515.625 52.875 "/>
<path style=" stroke:none;fill-rule:evenodd;fill:rgb(53.72549%,53.333333%,52.54902%);fill-opacity:1;" d="M 595.875 53.625 C 589.375 53.625 582.875 53.625 576.375 53.625 C 576.375 55.375 576.375 57.125 576.375 58.875 C 575.644531 57.039062 575.394531 55.039062 575.625 52.875 C 582.511719 52.628906 589.261719 52.878906 595.875 53.625 Z M 595.875 53.625 "/>
<path style=" stroke:none;fill-rule:evenodd;fill:rgb(21.960784%,21.176471%,19.607843%);fill-opacity:1;" d="M 166.875 85.875 C 167.066406 87.726562 167.816406 89.226562 169.125 90.375 C 169.125 90.625 169.125 90.875 169.125 91.125 C 168.875 93.367188 169.625 95.117188 171.375 96.375 C 178.507812 115.78125 185.753906 135.027344 193.125 154.125 C 191.460938 155.21875 189.710938 155.84375 187.875 156 C 186.933594 153.53125 185.933594 151.15625 184.875 148.875 C 184.152344 145.953125 183.152344 143.203125 181.875 140.625 C 181.402344 138.453125 180.652344 136.453125 179.625 134.625 C 179.433594 132.773438 178.683594 131.273438 177.375 130.125 C 168.613281 105.195312 159.363281 80.570312 149.625 56.25 C 150.648438 54.601562 152.148438 53.476562 154.125 52.875 C 158.800781 63.722656 163.050781 74.722656 166.875 85.875 Z M 166.875 85.875 "/>
<path style=" stroke:none;fill-rule:evenodd;fill:rgb(45.882353%,45.490196%,44.313725%);fill-opacity:1;" d="M 193.125 49.875 C 194.296875 51.382812 195.046875 53.132812 195.375 55.125 C 193.625 53.867188 192.875 52.117188 193.125 49.875 Z M 193.125 49.875 "/>
<path style=" stroke:none;fill-rule:evenodd;fill:rgb(20.392157%,19.607843%,18.039216%);fill-opacity:1;" d="M 567.375 56.625 C 567.515625 57.898438 568.140625 58.898438 569.25 59.625 C 569.625 63.367188 569.75 67.117188 569.625 70.875 C 567.78125 73.167969 565.78125 75.289062 563.625 77.25 C 566.722656 82.070312 569.722656 86.945312 572.625 91.875 C 572.625 92.875 572.625 93.875 572.625 94.875 C 569.125 94.875 565.625 94.875 562.125 94.875 C 559.257812 89.644531 556.382812 84.394531 553.5 79.125 C 552.484375 78.464844 551.359375 78.214844 550.125 78.375 C 550 81.632812 550.125 84.882812 550.5 88.125 C 551.335938 88.730469 552.210938 89.230469 553.125 89.625 C 553.125 91.375 553.125 93.125 553.125 94.875 C 547.125 94.875 541.125 94.875 535.125 94.875 C 535.125 92.875 535.125 90.875 535.125 88.875 C 536.09375 89.054688 536.84375 88.804688 537.375 88.125 C 538.371094 83.902344 538.871094 79.402344 538.875 74.625 C 538.875 69.992188 538.625 65.492188 538.125 61.125 C 534.890625 59.792969 533.640625 57.292969 534.375 53.625 C 543.105469 52.816406 551.855469 52.691406 560.625 53.25 C 563.160156 53.9375 565.410156 55.0625 567.375 56.625 Z M 567.375 56.625 "/>
<path style=" stroke:none;fill-rule:evenodd;fill:rgb(20.392157%,19.607843%,18.039216%);fill-opacity:1;" d="M 629.625 94.125 C 624.472656 95.417969 619.222656 95.917969 613.875 95.625 C 612.671875 94.445312 611.171875 93.945312 609.375 94.125 C 604.71875 91.832031 601.84375 88.082031 600.75 82.875 C 597.625 71.980469 600.25 62.855469 608.625 55.5 C 612.300781 53.285156 616.300781 52.410156 620.625 52.875 C 630.300781 52.019531 636.925781 56.019531 640.5 64.875 C 641.175781 70.933594 640.925781 76.933594 639.75 82.875 C 638.054688 88.195312 634.679688 91.945312 629.625 94.125 Z M 629.625 94.125 "/>
<path style=" stroke:none;fill-rule:evenodd;fill:rgb(19.215686%,18.431373%,16.862745%);fill-opacity:1;" d="M 265.125 59.625 C 263.625 59.875 262.125 60.125 260.625 60.375 C 260.5 69.128906 260.625 77.878906 261 86.625 C 262.089844 88.097656 263.464844 89.097656 265.125 89.625 C 265.125 91.375 265.125 93.125 265.125 94.875 C 258.625 94.875 252.125 94.875 245.625 94.875 C 245.625 92.875 245.625 90.875 245.625 88.875 C 246.945312 88.980469 248.195312 88.730469 249.375 88.125 C 250.367188 79.253906 250.367188 70.503906 249.375 61.875 C 248.566406 60.34375 247.316406 59.34375 245.625 58.875 C 245.625 57.125 245.625 55.375 245.625 53.625 C 252.125 53.625 258.625 53.625 265.125 53.625 C 265.125 55.625 265.125 57.625 265.125 59.625 Z M 265.125 59.625 "/>
<path style=" stroke:none;fill-rule:evenodd;fill:rgb(20.784314%,20%,18.431373%);fill-opacity:1;" d="M 283.125 53.625 C 288.875 61.125 294.625 68.625 300.375 76.125 C 300.421875 76.53125 300.667969 76.78125 301.125 76.875 C 302.097656 75.019531 302.097656 73.269531 301.125 71.625 C 301.371094 68.089844 301.121094 64.589844 300.375 61.125 C 299.226562 60.179688 297.980469 59.429688 296.625 58.875 C 296.625 57.125 296.625 55.375 296.625 53.625 C 301.625 53.625 306.625 53.625 311.625 53.625 C 311.625 55.625 311.625 57.625 311.625 59.625 C 311.136719 59.851562 310.636719 60.101562 310.125 60.375 C 309.375 71.863281 309.125 83.363281 309.375 94.875 C 306.585938 95.285156 303.835938 95.660156 301.125 96 C 294.460938 87.46875 287.960938 78.84375 281.625 70.125 C 281.578125 69.71875 281.332031 69.46875 280.875 69.375 C 279.894531 72.234375 279.894531 74.984375 280.875 77.625 C 280.75 80.636719 280.875 83.636719 281.25 86.625 C 282.339844 88.097656 283.714844 89.097656 285.375 89.625 C 285.375 91.375 285.375 93.125 285.375 94.875 C 280.125 94.875 274.875 94.875 269.625 94.875 C 269.449219 92.542969 269.699219 90.292969 270.375 88.125 C 271.125 88.125 271.875 88.125 272.625 88.125 C 272.875 78.863281 272.625 69.613281 271.875 60.375 C 271.109375 60.109375 270.609375 59.609375 270.375 58.875 C 270.375 57.125 270.375 55.375 270.375 53.625 C 274.625 53.625 278.875 53.625 283.125 53.625 Z M 283.125 53.625 "/>
<path style=" stroke:none;fill-rule:evenodd;fill:rgb(20.392157%,19.607843%,18.039216%);fill-opacity:1;" d="M 333.375 58.875 C 333.375 59.125 333.375 59.375 333.375 59.625 C 332.125 59.625 330.875 59.625 329.625 59.625 C 330.660156 64.738281 332.410156 69.488281 334.875 73.875 C 335.085938 77.226562 336.210938 80.226562 338.25 82.875 C 338.558594 81.824219 338.933594 80.824219 339.375 79.875 C 340.992188 78.289062 341.742188 76.285156 341.625 73.875 C 343.832031 69.414062 344.832031 64.789062 344.625 60 C 343.574219 59.691406 342.574219 59.316406 341.625 58.875 C 341.625 57.125 341.625 55.375 341.625 53.625 C 346.875 53.625 352.125 53.625 357.375 53.625 C 357.496094 55.394531 357.371094 57.144531 357 58.875 C 354.574219 61.722656 352.949219 64.972656 352.125 68.625 C 350.953125 70.132812 350.203125 71.882812 349.875 73.875 C 349.832031 74.707031 349.582031 75.457031 349.125 76.125 C 347.953125 77.632812 347.203125 79.382812 346.875 81.375 C 344.832031 85.722656 342.957031 90.222656 341.25 94.875 C 337.664062 95.851562 334.039062 95.851562 330.375 94.875 C 328.324219 89.96875 326.574219 84.96875 325.125 79.875 C 324.332031 77.125 323.457031 74.375 322.5 71.625 C 322.210938 71.207031 321.835938 70.957031 321.375 70.875 C 320.058594 66.414062 318.308594 62.164062 316.125 58.125 C 316.125 56.625 316.125 55.125 316.125 53.625 C 321.875 53.625 327.625 53.625 333.375 53.625 C 333.375 55.375 333.375 57.125 333.375 58.875 Z M 333.375 58.875 "/>
<path style=" stroke:none;fill-rule:evenodd;fill:rgb(19.607843%,18.823529%,17.254902%);fill-opacity:1;" d="M 394.125 65.625 C 392.605469 65.746094 391.105469 65.621094 389.625 65.25 C 388.753906 63.503906 387.503906 62.128906 385.875 61.125 C 382.773438 60.386719 379.523438 60.136719 376.125 60.375 C 376.125 63.875 376.125 67.375 376.125 70.875 C 379.277344 71.113281 382.277344 70.863281 385.125 70.125 C 386.625 70.125 388.125 70.125 389.625 70.125 C 389.625 72.875 389.625 75.625 389.625 78.375 C 385.117188 78.222656 380.617188 77.972656 376.125 77.625 C 376.125 81.125 376.125 84.625 376.125 88.125 C 379.773438 88.363281 383.273438 88.113281 386.625 87.375 C 388.394531 86.105469 389.894531 84.605469 391.125 82.875 C 392.625 82.875 394.125 82.875 395.625 82.875 C 395.375 86.875 395.125 90.875 394.875 94.875 C 383.625 94.875 372.375 94.875 361.125 94.875 C 361.125 92.625 361.125 90.375 361.125 88.125 C 362.601562 88.304688 363.976562 88.054688 365.25 87.375 C 365.75 78.875 365.75 70.375 365.25 61.875 C 363.890625 60.765625 362.515625 59.765625 361.125 58.875 C 361.125 57.125 361.125 55.375 361.125 53.625 C 372.125 53.625 383.125 53.625 394.125 53.625 C 394.125 57.625 394.125 61.625 394.125 65.625 Z M 394.125 65.625 "/>
<path style=" stroke:none;fill-rule:evenodd;fill:rgb(20.392157%,19.607843%,18.039216%);fill-opacity:1;" d="M 412.875 53.625 C 418.625 60.625 424.375 67.625 430.125 74.625 C 430.097656 75.566406 430.472656 76.316406 431.25 76.875 C 431.867188 71.738281 431.742188 66.742188 430.875 61.875 C 429.792969 60.703125 428.542969 59.703125 427.125 58.875 C 427.125 57.125 427.125 55.375 427.125 53.625 C 432.125 53.625 437.125 53.625 442.125 53.625 C 442.125 55.625 442.125 57.625 442.125 59.625 C 441.3125 59.65625 440.5625 59.90625 439.875 60.375 C 439.125 71.863281 438.875 83.363281 439.125 94.875 C 436.59375 95.21875 434.089844 95.71875 431.625 96.375 C 425.796875 88.460938 419.796875 80.710938 413.625 73.125 C 413.226562 71.59375 412.351562 70.34375 411 69.375 C 410.496094 75.535156 410.871094 81.535156 412.125 87.375 C 415.171875 88.851562 416.421875 91.351562 415.875 94.875 C 410.625 94.875 405.375 94.875 400.125 94.875 C 399.949219 92.542969 400.199219 90.292969 400.875 88.125 C 401.375 88.125 401.875 88.125 402.375 88.125 C 403.371094 83.902344 403.871094 79.402344 403.875 74.625 C 403.875 69.992188 403.625 65.492188 403.125 61.125 C 402.125 60.375 401.125 59.625 400.125 58.875 C 400.125 57.125 400.125 55.375 400.125 53.625 C 404.375 53.625 408.625 53.625 412.875 53.625 Z M 412.875 53.625 "/>
<path style=" stroke:none;fill-rule:evenodd;fill:rgb(19.607843%,18.823529%,17.254902%);fill-opacity:1;" d="M 484.875 54.375 C 484.875 58.125 484.875 61.875 484.875 65.625 C 483.625 65.625 482.375 65.625 481.125 65.625 C 479.894531 63.894531 478.394531 62.394531 476.625 61.125 C 475.042969 60.398438 473.292969 60.148438 471.375 60.375 C 471.128906 69.507812 471.378906 78.507812 472.125 87.375 C 473.238281 88.554688 474.488281 89.554688 475.875 90.375 C 475.875 91.875 475.875 93.375 475.875 94.875 C 469.125 94.875 462.375 94.875 455.625 94.875 C 455.625 92.875 455.625 90.875 455.625 88.875 C 456.824219 89.074219 457.824219 88.824219 458.625 88.125 C 459.375 88.125 460.125 88.125 460.875 88.125 C 460.875 78.875 460.875 69.625 460.875 60.375 C 458.859375 60.25 456.859375 60.375 454.875 60.75 C 454.3125 61.253906 454.058594 61.878906 454.125 62.625 C 452.558594 63.4375 451.558594 64.6875 451.125 66.375 C 449.625 66.375 448.125 66.375 446.625 66.375 C 446.625 62.125 446.625 57.875 446.625 53.625 C 459.507812 53.378906 472.257812 53.628906 484.875 54.375 Z M 484.875 54.375 "/>
<path style=" stroke:none;fill-rule:evenodd;fill:rgb(19.215686%,18.823529%,17.254902%);fill-opacity:1;" d="M 595.875 53.625 C 595.875 55.625 595.875 57.625 595.875 59.625 C 594.675781 59.425781 593.675781 59.675781 592.875 60.375 C 591.878906 64.59375 591.378906 69.09375 591.375 73.875 C 591.375 78.507812 591.625 83.007812 592.125 87.375 C 592.804688 88.472656 593.804688 89.222656 595.125 89.625 C 595.855469 91.308594 596.105469 93.058594 595.875 94.875 C 589.375 94.875 582.875 94.875 576.375 94.875 C 576.375 92.875 576.375 90.875 576.375 88.875 C 577.695312 88.980469 578.945312 88.730469 580.125 88.125 C 581.117188 79.253906 581.117188 70.503906 580.125 61.875 C 579.011719 60.695312 577.761719 59.695312 576.375 58.875 C 576.375 57.125 576.375 55.375 576.375 53.625 C 582.875 53.625 589.375 53.625 595.875 53.625 Z M 595.875 53.625 "/>
<path style=" stroke:none;fill-rule:evenodd;fill:rgb(46.27451%,45.882353%,44.705882%);fill-opacity:1;" d="M 169.125 55.875 C 170.152344 57.703125 170.902344 59.703125 171.375 61.875 C 169.757812 60.285156 169.007812 58.285156 169.125 55.875 Z M 169.125 55.875 "/>
<path style=" stroke:none;fill-rule:evenodd;fill:rgb(35.686275%,34.901961%,33.72549%);fill-opacity:1;" d="M 484.875 54.375 C 485.125 54.375 485.375 54.375 485.625 54.375 C 485.625 58.375 485.625 62.375 485.625 66.375 C 483.949219 66.597656 482.449219 66.347656 481.125 65.625 C 482.375 65.625 483.625 65.625 484.875 65.625 C 484.875 61.875 484.875 58.125 484.875 54.375 Z M 484.875 54.375 "/>
<path style=" stroke:none;fill-rule:evenodd;fill:rgb(79.607843%,79.215686%,78.823529%);fill-opacity:1;" d="M 556.875 60.375 C 554.875 60.375 552.875 60.375 550.875 60.375 C 550.875 63.875 550.875 67.375 550.875 70.875 C 553.125 70.875 555.375 70.875 557.625 70.875 C 555.28125 71.609375 552.78125 71.859375 550.125 71.625 C 550.125 67.625 550.125 63.625 550.125 59.625 C 552.535156 59.390625 554.785156 59.640625 556.875 60.375 Z M 556.875 60.375 "/>
<path style=" stroke:none;fill-rule:evenodd;fill:rgb(96.470588%,96.470588%,96.078431%);fill-opacity:1;" d="M 556.875 60.375 C 559.324219 61.398438 560.324219 63.273438 559.875 66 C 559.75 67.125 559.625 68.25 559.5 69.375 C 559.1875 70.316406 558.5625 70.816406 557.625 70.875 C 555.375 70.875 553.125 70.875 550.875 70.875 C 550.875 67.375 550.875 63.875 550.875 60.375 C 552.875 60.375 554.875 60.375 556.875 60.375 Z M 556.875 60.375 "/>
<path style=" stroke:none;fill-rule:evenodd;fill:rgb(68.627451%,68.235294%,67.843137%);fill-opacity:1;" d="M 333.375 59.625 C 332.84375 60.304688 332.09375 60.554688 331.125 60.375 C 332.070312 64.964844 333.320312 69.464844 334.875 73.875 C 332.410156 69.488281 330.660156 64.738281 329.625 59.625 C 330.875 59.625 332.125 59.625 333.375 59.625 Z M 333.375 59.625 "/>
<path style=" stroke:none;fill-rule:evenodd;fill:rgb(61.960784%,61.568627%,60.784314%);fill-opacity:1;" d="M 385.875 61.125 C 382.875 61.125 379.875 61.125 376.875 61.125 C 376.875 64.125 376.875 67.125 376.875 70.125 C 379.625 70.125 382.375 70.125 385.125 70.125 C 382.277344 70.863281 379.277344 71.113281 376.125 70.875 C 376.125 67.375 376.125 63.875 376.125 60.375 C 379.523438 60.136719 382.773438 60.386719 385.875 61.125 Z M 385.875 61.125 "/>
<path style=" stroke:none;fill-rule:evenodd;fill:rgb(60%,59.215686%,58.823529%);fill-opacity:1;" d="M 458.625 88.125 C 460.085938 79.3125 460.585938 70.3125 460.125 61.125 C 457.867188 60.832031 455.863281 61.332031 454.125 62.625 C 454.058594 61.878906 454.3125 61.253906 454.875 60.75 C 456.859375 60.375 458.859375 60.25 460.875 60.375 C 460.875 69.625 460.875 78.875 460.875 88.125 C 460.125 88.125 459.375 88.125 458.625 88.125 Z M 458.625 88.125 "/>
<path style=" stroke:none;fill-rule:evenodd;fill:rgb(74.509804%,74.117647%,73.72549%);fill-opacity:1;" d="M 622.875 61.875 C 619.347656 61.828125 615.847656 62.078125 612.375 62.625 C 614.105469 61.464844 616.105469 60.964844 618.375 61.125 C 620.023438 61.128906 621.523438 61.378906 622.875 61.875 Z M 622.875 61.875 "/>
<path style=" stroke:none;fill-rule:evenodd;fill:rgb(67.058824%,66.666667%,65.882353%);fill-opacity:1;" d="M 476.625 61.125 C 475.125 61.125 473.625 61.125 472.125 61.125 C 472.125 69.875 472.125 78.625 472.125 87.375 C 471.378906 78.507812 471.128906 69.507812 471.375 60.375 C 473.292969 60.148438 475.042969 60.398438 476.625 61.125 Z M 476.625 61.125 "/>
<path style=" stroke:none;fill-rule:evenodd;fill:rgb(73.333333%,73.333333%,72.54902%);fill-opacity:1;" d="M 592.875 60.375 C 592.140625 69.316406 591.890625 78.316406 592.125 87.375 C 591.625 83.007812 591.375 78.507812 591.375 73.875 C 591.378906 69.09375 591.878906 64.59375 592.875 60.375 Z M 592.875 60.375 "/>
<path style=" stroke:none;fill-rule:evenodd;fill:rgb(98.039216%,97.647059%,97.647059%);fill-opacity:1;" d="M 622.875 61.875 C 625.546875 62.296875 627.296875 63.796875 628.125 66.375 C 628.75 71.347656 628.996094 76.347656 628.875 81.375 C 629.1875 84.6875 627.6875 86.5625 624.375 87 C 616.613281 88.253906 612.238281 84.878906 611.25 76.875 C 611.125 74.875 611 72.875 610.875 70.875 C 610.71875 67.898438 611.222656 65.148438 612.375 62.625 C 615.847656 62.078125 619.347656 61.828125 622.875 61.875 Z M 622.875 61.875 "/>
<path style=" stroke:none;fill-rule:evenodd;fill:rgb(69.803922%,69.803922%,69.019608%);fill-opacity:1;" d="M 249.375 61.875 C 250.367188 70.503906 250.367188 79.253906 249.375 88.125 C 248.195312 88.730469 246.945312 88.980469 245.625 88.875 C 246.480469 88.246094 247.480469 87.746094 248.625 87.375 C 249.375 78.890625 249.625 70.390625 249.375 61.875 Z M 249.375 61.875 "/>
<path style=" stroke:none;fill-rule:evenodd;fill:rgb(56.862745%,56.862745%,55.686275%);fill-opacity:1;" d="M 580.125 61.875 C 581.117188 70.503906 581.117188 79.253906 580.125 88.125 C 578.945312 88.730469 577.695312 88.980469 576.375 88.875 C 577.230469 88.246094 578.230469 87.746094 579.375 87.375 C 580.125 78.890625 580.375 70.390625 580.125 61.875 Z M 580.125 61.875 "/>
<path style=" stroke:none;fill-rule:evenodd;fill:rgb(80%,79.607843%,79.215686%);fill-opacity:1;" d="M 538.125 61.125 C 538.625 65.492188 538.875 69.992188 538.875 74.625 C 538.871094 79.402344 538.371094 83.902344 537.375 88.125 C 538.109375 79.183594 538.359375 70.183594 538.125 61.125 Z M 538.125 61.125 "/>
<path style=" stroke:none;fill-rule:evenodd;fill:rgb(37.254902%,36.470588%,35.294118%);fill-opacity:1;" d="M 567.375 56.625 C 569.542969 57.675781 570.667969 59.425781 570.75 61.875 C 571.25 64.375 571.25 66.875 570.75 69.375 C 570.542969 70.0625 570.167969 70.5625 569.625 70.875 C 569.75 67.117188 569.625 63.367188 569.25 59.625 C 568.140625 58.898438 567.515625 57.898438 567.375 56.625 Z M 567.375 56.625 "/>
<path style=" stroke:none;fill-rule:evenodd;fill:rgb(61.960784%,61.568627%,60.784314%);fill-opacity:1;" d="M 510.375 67.125 C 509.925781 66.074219 509.175781 65.324219 508.125 64.875 C 508.136719 63.730469 508.636719 63.355469 509.625 63.75 C 510.285156 64.765625 510.535156 65.890625 510.375 67.125 Z M 510.375 67.125 "/>
<path style=" stroke:none;fill-rule:evenodd;fill:rgb(20%,19.215686%,17.647059%);fill-opacity:1;" d="M 128.625 68.625 C 129.308594 71.953125 130.5625 74.953125 132.375 77.625 C 132.257812 80.035156 133.007812 82.039062 134.625 83.625 C 140.070312 97.769531 145.320312 112.019531 150.375 126.375 C 150.320312 127.519531 150.820312 128.269531 151.875 128.625 C 151.875 129.125 151.875 129.625 151.875 130.125 C 152.066406 131.976562 152.816406 133.476562 154.125 134.625 C 154.125 134.875 154.125 135.125 154.125 135.375 C 154.328125 138.269531 155.328125 140.769531 157.125 142.875 C 160.152344 150.203125 162.902344 157.703125 165.375 165.375 C 161.855469 165.839844 158.480469 166.839844 155.25 168.375 C 154.574219 168.191406 153.949219 167.941406 153.375 167.625 C 152.421875 164.015625 151.171875 160.515625 149.625 157.125 C 149.152344 154.953125 148.402344 152.953125 147.375 151.125 C 146.902344 148.953125 146.152344 146.953125 145.125 145.125 C 137.335938 124.566406 129.585938 104.0625 121.875 83.625 C 121.683594 81.773438 120.933594 80.273438 119.625 79.125 C 118.386719 75.640625 117.136719 72.140625 115.875 68.625 C 119.335938 66.550781 123.085938 65.050781 127.125 64.125 C 127.277344 65.765625 127.777344 67.265625 128.625 68.625 Z M 128.625 68.625 "/>
<path style=" stroke:none;fill-rule:evenodd;fill:rgb(34.509804%,33.72549%,32.54902%);fill-opacity:1;" d="M 403.125 61.125 C 403.625 65.492188 403.875 69.992188 403.875 74.625 C 403.871094 79.402344 403.371094 83.902344 402.375 88.125 C 403.109375 79.183594 403.359375 70.183594 403.125 61.125 Z M 403.125 61.125 "/>
<path style=" stroke:none;fill-rule:evenodd;fill:rgb(94.901961%,94.901961%,94.509804%);fill-opacity:1;" d="M 508.125 64.875 C 509.175781 65.324219 509.925781 66.074219 510.375 67.125 C 511.023438 68.566406 511.523438 70.066406 511.875 71.625 C 511.875 72.625 511.875 73.625 511.875 74.625 C 509.570312 74.863281 507.320312 74.613281 505.125 73.875 C 506.027344 71.664062 506.777344 69.414062 507.375 67.125 C 507.417969 66.292969 507.667969 65.542969 508.125 64.875 Z M 508.125 64.875 "/>
<path style=" stroke:none;fill-rule:evenodd;fill:rgb(55.686275%,55.294118%,54.117647%);fill-opacity:1;" d="M 128.625 68.625 C 130.4375 71.296875 131.691406 74.296875 132.375 77.625 C 130.5625 74.953125 129.308594 71.953125 128.625 68.625 Z M 128.625 68.625 "/>
<path style=" stroke:none;fill-rule:evenodd;fill:rgb(21.960784%,21.176471%,19.607843%);fill-opacity:1;" d="M 109.875 70.875 C 109.808594 72.863281 110.308594 74.613281 111.375 76.125 C 111.320312 77.269531 111.820312 78.019531 112.875 78.375 C 119.125 95.375 125.375 112.375 131.625 129.375 C 131.816406 131.226562 132.566406 132.726562 133.875 133.875 C 138.585938 145.878906 143.085938 158.003906 147.375 170.25 C 146.328125 171.589844 144.953125 172.464844 143.25 172.875 C 141.335938 170.40625 139.835938 167.65625 138.75 164.625 C 135.34375 154.527344 131.71875 144.527344 127.875 134.625 C 127.546875 132.632812 126.796875 130.882812 125.625 129.375 C 125.625 129.125 125.625 128.875 125.625 128.625 C 125.433594 126.773438 124.683594 125.273438 123.375 124.125 C 116.851562 106.808594 110.601562 89.308594 104.625 71.625 C 106.355469 71.253906 108.105469 71.003906 109.875 70.875 Z M 109.875 70.875 "/>
<path style=" stroke:none;fill-rule:evenodd;fill:rgb(67.843137%,67.45098%,67.058824%);fill-opacity:1;" d="M 352.125 68.625 C 352.375 70.867188 351.625 72.617188 349.875 73.875 C 350.203125 71.882812 350.953125 70.132812 352.125 68.625 Z M 352.125 68.625 "/>
<path style=" stroke:none;fill-rule:evenodd;fill:rgb(78.039216%,77.647059%,77.254902%);fill-opacity:1;" d="M 413.625 73.125 C 412.90625 72.785156 412.28125 72.285156 411.75 71.625 C 411.816406 76.863281 411.941406 82.113281 412.125 87.375 C 410.871094 81.535156 410.496094 75.535156 411 69.375 C 412.351562 70.34375 413.226562 71.59375 413.625 73.125 Z M 413.625 73.125 "/>
<path style=" stroke:none;fill-rule:evenodd;fill:rgb(48.235294%,47.45098%,46.666667%);fill-opacity:1;" d="M 321.375 70.875 C 321.835938 70.957031 322.210938 71.207031 322.5 71.625 C 323.457031 74.375 324.332031 77.125 325.125 79.875 C 323.3125 77.203125 322.058594 74.203125 321.375 70.875 Z M 321.375 70.875 "/>
<path style=" stroke:none;fill-rule:evenodd;fill:rgb(69.411765%,69.019608%,68.627451%);fill-opacity:1;" d="M 430.875 61.875 C 431.742188 66.742188 431.867188 71.738281 431.25 76.875 C 430.472656 76.316406 430.097656 75.566406 430.125 74.625 C 430.867188 70.519531 431.117188 66.269531 430.875 61.875 Z M 430.875 61.875 "/>
<path style=" stroke:none;fill-rule:evenodd;fill:rgb(48.627451%,48.235294%,47.45098%);fill-opacity:1;" d="M 109.875 70.875 C 110.941406 72.386719 111.441406 74.136719 111.375 76.125 C 110.308594 74.613281 109.808594 72.863281 109.875 70.875 Z M 109.875 70.875 "/>
<path style=" stroke:none;fill-rule:evenodd;fill:rgb(56.470588%,56.078431%,54.901961%);fill-opacity:1;" d="M 497.625 72.375 C 497.679688 73.519531 497.179688 74.269531 496.125 74.625 C 496.070312 73.480469 496.570312 72.730469 497.625 72.375 Z M 497.625 72.375 "/>
<path style=" stroke:none;fill-rule:evenodd;fill:rgb(55.686275%,55.294118%,54.117647%);fill-opacity:1;" d="M 301.125 71.625 C 302.097656 73.269531 302.097656 75.019531 301.125 76.875 C 300.667969 76.78125 300.421875 76.53125 300.375 76.125 C 301.097656 74.800781 301.347656 73.300781 301.125 71.625 Z M 301.125 71.625 "/>
<path style=" stroke:none;fill-rule:evenodd;fill:rgb(55.294118%,54.901961%,53.72549%);fill-opacity:1;" d="M 507.375 67.125 C 506.777344 69.414062 506.027344 71.664062 505.125 73.875 C 507.320312 74.613281 509.570312 74.863281 511.875 74.625 C 511.875 73.625 511.875 72.625 511.875 71.625 C 512.589844 72.6875 512.839844 73.9375 512.625 75.375 C 509.875 75.375 507.125 75.375 504.375 75.375 C 504.507812 72.21875 505.507812 69.46875 507.375 67.125 Z M 507.375 67.125 "/>
<path style=" stroke:none;fill-rule:evenodd;fill:rgb(20.392157%,19.607843%,18.039216%);fill-opacity:1;" d="M 116.625 125.625 C 116.816406 127.476562 117.566406 128.976562 118.875 130.125 C 118.757812 132.535156 119.507812 134.539062 121.125 136.125 C 126.007812 148.761719 130.753906 161.511719 135.375 174.375 C 135.472656 175.03125 135.222656 175.53125 134.625 175.875 C 131.609375 176.707031 128.859375 177.957031 126.375 179.625 C 124.941406 179.570312 124.066406 178.820312 123.75 177.375 C 119.046875 164.882812 114.421875 152.382812 109.875 139.875 C 109.546875 137.882812 108.796875 136.132812 107.625 134.625 C 107.625 134.375 107.625 134.125 107.625 133.875 C 107.433594 132.023438 106.683594 130.523438 105.375 129.375 C 105.375 128.875 105.375 128.375 105.375 127.875 C 105.429688 126.730469 104.929688 125.980469 103.875 125.625 C 98.492188 110.097656 92.742188 94.722656 86.625 79.5 C 89.789062 77.296875 93.289062 75.671875 97.125 74.625 C 98.097656 75.066406 98.722656 75.816406 99 76.875 C 104.917969 93.191406 110.792969 109.441406 116.625 125.625 Z M 116.625 125.625 "/>
<path style=" stroke:none;fill-rule:evenodd;fill:rgb(70.980392%,70.588235%,69.803922%);fill-opacity:1;" d="M 442.125 59.625 C 441.882812 60.785156 441.132812 61.285156 439.875 61.125 C 440.121094 72.507812 439.871094 83.757812 439.125 94.875 C 438.875 83.363281 439.125 71.863281 439.875 60.375 C 440.5625 59.90625 441.3125 59.65625 442.125 59.625 Z M 442.125 59.625 "/>
<path style=" stroke:none;fill-rule:evenodd;fill:rgb(60%,59.607843%,58.823529%);fill-opacity:1;" d="M 281.625 70.125 C 280.890625 72.46875 280.640625 74.96875 280.875 77.625 C 279.894531 74.984375 279.894531 72.234375 280.875 69.375 C 281.332031 69.46875 281.578125 69.71875 281.625 70.125 Z M 281.625 70.125 "/>
<path style=" stroke:none;fill-rule:evenodd;fill:rgb(49.411765%,49.019608%,48.235294%);fill-opacity:1;" d="M 341.625 73.875 C 341.742188 76.285156 340.992188 78.289062 339.375 79.875 C 339.847656 77.703125 340.597656 75.703125 341.625 73.875 Z M 341.625 73.875 "/>
<path style=" stroke:none;fill-rule:evenodd;fill:rgb(56.862745%,56.862745%,55.686275%);fill-opacity:1;" d="M 111.375 76.125 C 112.429688 76.480469 112.929688 77.230469 112.875 78.375 C 111.820312 78.019531 111.320312 77.269531 111.375 76.125 Z M 111.375 76.125 "/>
<path style=" stroke:none;fill-rule:evenodd;fill:rgb(74.509804%,74.117647%,73.72549%);fill-opacity:1;" d="M 628.125 66.375 C 629.285156 69.027344 629.785156 71.902344 629.625 75 C 629.625 77.265625 629.371094 79.390625 628.875 81.375 C 628.996094 76.347656 628.75 71.347656 628.125 66.375 Z M 628.125 66.375 "/>
<path style=" stroke:none;fill-rule:evenodd;fill:rgb(69.803922%,69.411765%,68.627451%);fill-opacity:1;" d="M 349.125 76.125 C 349.375 78.367188 348.625 80.117188 346.875 81.375 C 347.203125 79.382812 347.953125 77.632812 349.125 76.125 Z M 349.125 76.125 "/>
<path style=" stroke:none;fill-rule:evenodd;fill:rgb(64.705882%,63.921569%,63.529412%);fill-opacity:1;" d="M 385.125 70.125 C 386.707031 69.398438 388.457031 69.148438 390.375 69.375 C 390.375 72.625 390.375 75.875 390.375 79.125 C 385.851562 79.179688 381.351562 78.929688 376.875 78.375 C 376.875 81.375 376.875 84.375 376.875 87.375 C 380.125 87.375 383.375 87.375 386.625 87.375 C 383.273438 88.113281 379.773438 88.363281 376.125 88.125 C 376.125 84.625 376.125 81.125 376.125 77.625 C 380.617188 77.972656 385.117188 78.222656 389.625 78.375 C 389.625 75.625 389.625 72.875 389.625 70.125 C 388.125 70.125 386.625 70.125 385.125 70.125 Z M 385.125 70.125 "/>
<path style=" stroke:none;fill-rule:evenodd;fill:rgb(44.313725%,43.921569%,42.745098%);fill-opacity:1;" d="M 495.375 76.875 C 495.554688 78.671875 495.054688 80.171875 493.875 81.375 C 493.695312 79.578125 494.195312 78.078125 495.375 76.875 Z M 495.375 76.875 "/>
<path style=" stroke:none;fill-rule:evenodd;fill:rgb(47.058824%,46.666667%,45.490196%);fill-opacity:1;" d="M 132.375 77.625 C 133.402344 79.453125 134.152344 81.453125 134.625 83.625 C 133.007812 82.039062 132.257812 80.035156 132.375 77.625 Z M 132.375 77.625 "/>
<path style=" stroke:none;fill-rule:evenodd;fill:rgb(53.72549%,53.333333%,52.54902%);fill-opacity:1;" d="M 119.625 79.125 C 120.933594 80.273438 121.683594 81.773438 121.875 83.625 C 120.566406 82.476562 119.816406 80.976562 119.625 79.125 Z M 119.625 79.125 "/>
<path style=" stroke:none;fill-rule:evenodd;fill:rgb(49.803922%,49.019608%,48.235294%);fill-opacity:1;" d="M 502.125 82.125 C 504.234375 81.625 506.484375 81.375 508.875 81.375 C 511.433594 81.386719 513.683594 81.886719 515.625 82.875 C 511.191406 82.160156 506.691406 81.910156 502.125 82.125 Z M 502.125 82.125 "/>
<path style=" stroke:none;fill-rule:evenodd;fill:rgb(69.803922%,69.803922%,69.019608%);fill-opacity:1;" d="M 501.375 88.125 C 502.695312 88.019531 503.945312 88.269531 505.125 88.875 C 506.101562 90.980469 506.101562 92.980469 505.125 94.875 C 505.125 93.125 505.125 91.375 505.125 89.625 C 503.585938 89.699219 502.335938 89.199219 501.375 88.125 Z M 501.375 88.125 "/>
<path style=" stroke:none;fill-rule:evenodd;fill:rgb(57.254902%,56.862745%,56.078431%);fill-opacity:1;" d="M 166.875 85.875 C 168.183594 87.023438 168.933594 88.523438 169.125 90.375 C 167.816406 89.226562 167.066406 87.726562 166.875 85.875 Z M 166.875 85.875 "/>
<path style=" stroke:none;fill-rule:evenodd;fill:rgb(65.882353%,65.490196%,64.705882%);fill-opacity:1;" d="M 391.125 82.875 C 392.960938 82.144531 394.960938 81.894531 397.125 82.125 C 396.765625 86.539062 396.015625 90.789062 394.875 94.875 C 395.125 90.875 395.375 86.875 395.625 82.875 C 394.125 82.875 392.625 82.875 391.125 82.875 Z M 391.125 82.875 "/>
<path style=" stroke:none;fill-rule:evenodd;fill:rgb(52.54902%,52.156863%,50.980392%);fill-opacity:1;" d="M 516.375 85.875 C 517.4375 88.449219 516.4375 89.699219 513.375 89.625 C 513.375 91.375 513.375 93.125 513.375 94.875 C 512.398438 92.980469 512.398438 90.980469 513.375 88.875 C 514.300781 88.316406 515.300781 88.066406 516.375 88.125 C 516.375 87.375 516.375 86.625 516.375 85.875 Z M 516.375 85.875 "/>
<path style=" stroke:none;fill-rule:evenodd;fill:rgb(48.235294%,47.843137%,46.666667%);fill-opacity:1;" d="M 169.125 91.125 C 170.296875 92.632812 171.046875 94.382812 171.375 96.375 C 169.625 95.117188 168.875 93.367188 169.125 91.125 Z M 169.125 91.125 "/>
<path style=" stroke:none;fill-rule:evenodd;fill:rgb(58.823529%,58.431373%,57.254902%);fill-opacity:1;" d="M 265.125 89.625 C 265.855469 91.460938 266.105469 93.460938 265.875 95.625 C 258.988281 95.871094 252.238281 95.621094 245.625 94.875 C 252.125 94.875 258.625 94.875 265.125 94.875 C 265.125 93.125 265.125 91.375 265.125 89.625 Z M 265.125 89.625 "/>
<path style=" stroke:none;fill-rule:evenodd;fill:rgb(62.745098%,62.352941%,61.568627%);fill-opacity:1;" d="M 270.375 88.125 C 269.699219 90.292969 269.449219 92.542969 269.625 94.875 C 274.875 94.875 280.125 94.875 285.375 94.875 C 285.375 93.125 285.375 91.375 285.375 89.625 C 286.105469 91.460938 286.355469 93.460938 286.125 95.625 C 280.375 95.625 274.625 95.625 268.875 95.625 C 268.449219 92.753906 268.949219 90.253906 270.375 88.125 Z M 270.375 88.125 "/>
<path style=" stroke:none;fill-rule:evenodd;fill:rgb(57.647059%,57.254902%,56.078431%);fill-opacity:1;" d="M 400.875 88.125 C 400.199219 90.292969 399.949219 92.542969 400.125 94.875 C 405.375 94.875 410.625 94.875 415.875 94.875 C 410.515625 95.617188 405.015625 95.867188 399.375 95.625 C 398.949219 92.753906 399.449219 90.253906 400.875 88.125 Z M 400.875 88.125 "/>
<path style=" stroke:none;fill-rule:evenodd;fill:rgb(54.509804%,54.117647%,52.941176%);fill-opacity:1;" d="M 475.875 90.375 C 476.601562 91.957031 476.851562 93.707031 476.625 95.625 C 469.488281 95.871094 462.488281 95.621094 455.625 94.875 C 462.375 94.875 469.125 94.875 475.875 94.875 C 475.875 93.375 475.875 91.875 475.875 90.375 Z M 475.875 90.375 "/>
<path style=" stroke:none;fill-rule:evenodd;fill:rgb(56.078431%,55.686275%,54.509804%);fill-opacity:1;" d="M 489.375 89.625 C 489.375 91.375 489.375 93.125 489.375 94.875 C 494.625 94.875 499.875 94.875 505.125 94.875 C 499.765625 95.617188 494.265625 95.867188 488.625 95.625 C 488.394531 93.460938 488.644531 91.460938 489.375 89.625 Z M 489.375 89.625 "/>
<path style=" stroke:none;fill-rule:evenodd;fill:rgb(52.941176%,52.54902%,51.372549%);fill-opacity:1;" d="M 537.375 88.125 C 536.84375 88.804688 536.09375 89.054688 535.125 88.875 C 535.125 90.875 535.125 92.875 535.125 94.875 C 541.125 94.875 547.125 94.875 553.125 94.875 C 553.125 93.125 553.125 91.375 553.125 89.625 C 553.855469 91.460938 554.105469 93.460938 553.875 95.625 C 547.375 95.625 540.875 95.625 534.375 95.625 C 534.375 93.125 534.375 90.625 534.375 88.125 C 535.375 88.125 536.375 88.125 537.375 88.125 Z M 537.375 88.125 "/>
<path style=" stroke:none;fill-rule:evenodd;fill:rgb(55.686275%,55.294118%,54.509804%);fill-opacity:1;" d="M 572.625 91.875 C 573.339844 92.9375 573.589844 94.1875 573.375 95.625 C 569.480469 95.867188 565.730469 95.617188 562.125 94.875 C 565.625 94.875 569.125 94.875 572.625 94.875 C 572.625 93.875 572.625 92.875 572.625 91.875 Z M 572.625 91.875 "/>
<path style=" stroke:none;fill-rule:evenodd;fill:rgb(60%,59.607843%,58.431373%);fill-opacity:1;" d="M 576.375 88.875 C 576.375 90.875 576.375 92.875 576.375 94.875 C 582.875 94.875 589.375 94.875 595.875 94.875 C 589.261719 95.621094 582.511719 95.871094 575.625 95.625 C 575.390625 93.214844 575.640625 90.964844 576.375 88.875 Z M 576.375 88.875 "/>
<path style=" stroke:none;fill-rule:evenodd;fill:rgb(51.764706%,51.372549%,50.196078%);fill-opacity:1;" d="M 609.375 94.125 C 611.171875 93.945312 612.671875 94.445312 613.875 95.625 C 612.078125 95.804688 610.578125 95.304688 609.375 94.125 Z M 609.375 94.125 "/>
<path style=" stroke:none;fill-rule:evenodd;fill:rgb(70.196078%,70.196078%,69.411765%);fill-opacity:1;" d="M 439.125 94.875 C 436.828125 96.796875 434.328125 97.292969 431.625 96.375 C 434.089844 95.71875 436.59375 95.21875 439.125 94.875 Z M 439.125 94.875 "/>
<path style=" stroke:none;fill-rule:evenodd;fill:rgb(60.784314%,60.392157%,59.607843%);fill-opacity:1;" d="M 629.625 94.125 C 628.738281 95.300781 627.488281 95.925781 625.875 96 C 621.738281 96.613281 617.738281 96.488281 613.875 95.625 C 619.222656 95.917969 624.472656 95.417969 629.625 94.125 Z M 629.625 94.125 "/>
<path style=" stroke:none;fill-rule:evenodd;fill:rgb(59.607843%,59.215686%,58.431373%);fill-opacity:1;" d="M 210.375 95.625 C 211.683594 96.773438 212.433594 98.273438 212.625 100.125 C 211.316406 98.976562 210.566406 97.476562 210.375 95.625 Z M 210.375 95.625 "/>
<path style=" stroke:none;fill-rule:evenodd;fill:rgb(65.098039%,64.705882%,63.921569%);fill-opacity:1;" d="M 191.625 95.625 C 193.300781 98.640625 194.550781 101.890625 195.375 105.375 C 193.117188 102.59375 191.867188 99.347656 191.625 95.625 Z M 191.625 95.625 "/>
<path style=" stroke:none;fill-rule:evenodd;fill:rgb(57.647059%,56.862745%,56.078431%);fill-opacity:1;" d="M 178.125 97.125 C 179.433594 98.273438 180.183594 99.773438 180.375 101.625 C 179.066406 100.476562 178.316406 98.976562 178.125 97.125 Z M 178.125 97.125 "/>
<path style=" stroke:none;fill-rule:evenodd;fill:rgb(46.27451%,45.882353%,44.313725%);fill-opacity:1;" d="M 212.625 100.875 C 214.050781 103.136719 215.050781 105.636719 215.625 108.375 C 213.828125 106.269531 212.828125 103.769531 212.625 100.875 Z M 212.625 100.875 "/>
<path style=" stroke:none;fill-rule:evenodd;fill:rgb(61.568627%,61.176471%,60.392157%);fill-opacity:1;" d="M 180.375 103.125 C 181.683594 104.273438 182.433594 105.773438 182.625 107.625 C 181.316406 106.476562 180.566406 104.976562 180.375 103.125 Z M 180.375 103.125 "/>
<path style=" stroke:none;fill-rule:evenodd;fill:rgb(20.392157%,19.607843%,18.039216%);fill-opacity:1;" d="M 163.125 108.375 C 163.5625 110.960938 164.5625 113.210938 166.125 115.125 C 171.46875 129.191406 176.71875 143.316406 181.875 157.5 C 181.765625 158.078125 181.515625 158.578125 181.125 159 C 177.679688 160.351562 174.179688 161.476562 170.625 162.375 C 168.15625 154.710938 165.40625 147.210938 162.375 139.875 C 161.550781 136.390625 160.300781 133.140625 158.625 130.125 C 158.625 129.875 158.625 129.625 158.625 129.375 C 158.433594 127.523438 157.683594 126.023438 156.375 124.875 C 156.375 124.375 156.375 123.875 156.375 123.375 C 156.183594 121.523438 155.433594 120.023438 154.125 118.875 C 153.675781 116.777344 152.925781 114.777344 151.875 112.875 C 155.386719 110.785156 159.136719 109.285156 163.125 108.375 Z M 163.125 108.375 "/>
<path style=" stroke:none;fill-rule:evenodd;fill:rgb(58.431373%,58.039216%,57.254902%);fill-opacity:1;" d="M 163.125 108.375 C 164.6875 110.289062 165.6875 112.539062 166.125 115.125 C 164.5625 113.210938 163.5625 110.960938 163.125 108.375 Z M 163.125 108.375 "/>
<path style=" stroke:none;fill-rule:evenodd;fill:rgb(56.470588%,56.078431%,55.294118%);fill-opacity:1;" d="M 188.625 108.375 C 189.933594 109.523438 190.683594 111.023438 190.875 112.875 C 189.566406 111.726562 188.816406 110.226562 188.625 108.375 Z M 188.625 108.375 "/>
<path style=" stroke:none;fill-rule:evenodd;fill:rgb(42.352941%,41.960784%,40.784314%);fill-opacity:1;" d="M 256.875 113.625 C 253.96875 112.175781 250.71875 111.675781 247.125 112.125 C 247.304688 113.09375 247.054688 113.84375 246.375 114.375 C 246.375 113.375 246.375 112.375 246.375 111.375 C 250.125 111.375 253.875 111.375 257.625 111.375 C 257.804688 112.34375 257.554688 113.09375 256.875 113.625 Z M 256.875 113.625 "/>
<path style=" stroke:none;fill-rule:evenodd;fill:rgb(52.54902%,51.764706%,50.980392%);fill-opacity:1;" d="M 362.625 119.625 C 362.027344 117.621094 361.527344 115.496094 361.125 113.25 C 360.617188 111.988281 359.867188 111.863281 358.875 112.875 C 359.386719 111.617188 360.386719 111.117188 361.875 111.375 C 362.433594 114.089844 362.683594 116.839844 362.625 119.625 Z M 362.625 119.625 "/>
<path style=" stroke:none;fill-rule:evenodd;fill:rgb(45.882353%,45.490196%,44.313725%);fill-opacity:1;" d="M 480.375 112.125 C 477.875 112.125 475.375 112.125 472.875 112.125 C 473.101562 114.042969 472.851562 115.792969 472.125 117.375 C 472.851562 115.792969 473.101562 114.042969 472.875 112.125 C 475.375 112.125 477.875 112.125 480.375 112.125 Z M 480.375 112.125 "/>
<path style=" stroke:none;fill-rule:evenodd;fill:rgb(50.980392%,50.588235%,49.411765%);fill-opacity:1;" d="M 313.875 113.625 C 313.972656 112.96875 313.722656 112.46875 313.125 112.125 C 312.617188 112.953125 312.117188 113.703125 311.625 114.375 C 312.117188 113.703125 312.617188 112.953125 313.125 112.125 C 313.722656 112.46875 313.972656 112.96875 313.875 113.625 Z M 313.875 113.625 "/>
<path style=" stroke:none;fill-rule:evenodd;fill:rgb(29.411765%,28.627451%,27.058824%);fill-opacity:1;" d="M 388.125 114.375 C 388.441406 116.085938 387.941406 117.335938 386.625 118.125 C 386.125 116.875 385.625 115.625 385.125 114.375 C 384.542969 113.890625 383.792969 113.640625 382.875 113.625 C 381.484375 113.503906 380.484375 114.003906 379.875 115.125 C 378.820312 115.480469 378.320312 116.230469 378.375 117.375 C 377.316406 119.535156 376.816406 121.910156 376.875 124.5 C 376.878906 126.023438 377.128906 127.398438 377.625 128.625 C 377.707031 129.085938 377.957031 129.460938 378.375 129.75 C 379.875 130.25 381.375 130.25 382.875 129.75 C 383.625 128.5 384.375 127.25 385.125 126 C 385.835938 125.636719 386.585938 125.511719 387.375 125.625 C 386.867188 128.914062 385.117188 131.164062 382.125 132.375 C 380.324219 132.414062 378.574219 132.164062 376.875 131.625 C 374.210938 126.359375 374.089844 120.859375 376.5 115.125 C 380.238281 110.511719 384.113281 110.261719 388.125 114.375 Z M 388.125 114.375 "/>
<path style=" stroke:none;fill-rule:evenodd;fill:rgb(25.098039%,24.313725%,22.745098%);fill-opacity:1;" d="M 439.125 113.625 C 439.125 114.625 439.125 115.625 439.125 116.625 C 438.375 116.625 437.625 116.625 436.875 116.625 C 436.875 117.625 436.875 118.625 436.875 119.625 C 436.875 120.625 436.875 121.625 436.875 122.625 C 436.300781 124.570312 436.050781 126.570312 436.125 128.625 C 435.441406 129.765625 434.816406 131.015625 434.25 132.375 C 433.875 130.136719 433.75 127.886719 433.875 125.625 C 433.875 125.125 433.875 124.625 433.875 124.125 C 435.65625 120.683594 436.40625 116.933594 436.125 112.875 C 436.636719 111.617188 437.636719 111.117188 439.125 111.375 C 439.125 112.125 439.125 112.875 439.125 113.625 Z M 439.125 113.625 "/>
<path style=" stroke:none;fill-rule:evenodd;fill:rgb(29.803922%,29.019608%,27.45098%);fill-opacity:1;" d="M 502.125 111.375 C 502.023438 115.058594 502.519531 118.5625 503.625 121.875 C 503.625 122.375 503.625 122.875 503.625 123.375 C 503.75 125.886719 503.625 128.386719 503.25 130.875 C 503.09375 129.707031 502.71875 128.707031 502.125 127.875 C 497.347656 126.820312 494.097656 128.445312 492.375 132.75 C 491.523438 133.3125 490.773438 133.1875 490.125 132.375 C 492.835938 125.453125 495.960938 118.703125 499.5 112.125 C 500.257812 111.496094 501.132812 111.246094 502.125 111.375 Z M 502.125 111.375 "/>
<path style=" stroke:none;fill-rule:evenodd;fill:rgb(30.980392%,30.196078%,28.627451%);fill-opacity:1;" d="M 561.375 111.375 C 562.375 111.375 563.375 111.375 564.375 111.375 C 562.625 117.753906 561.5 124.253906 561 130.875 C 560.46875 131.980469 559.59375 132.480469 558.375 132.375 C 559.496094 125.40625 560.496094 118.40625 561.375 111.375 Z M 561.375 111.375 "/>
<path style=" stroke:none;fill-rule:evenodd;fill:rgb(25.882353%,25.098039%,23.529412%);fill-opacity:1;" d="M 630.375 129.375 C 629.96875 129.421875 629.71875 129.667969 629.625 130.125 C 632.125 130.625 634.625 131.125 637.125 131.625 C 635.375 131.875 633.625 132.125 631.875 132.375 C 629.796875 132.351562 628.046875 131.855469 626.625 130.875 C 629.589844 127.03125 632.714844 123.28125 636 119.625 C 636.578125 117.675781 636.453125 115.800781 635.625 114 C 632.472656 113.523438 630.722656 114.898438 630.375 118.125 C 629.625 118.125 628.875 118.125 628.125 118.125 C 629.820312 110.832031 633.445312 109.582031 639 114.375 C 639.558594 116.835938 639.058594 119.085938 637.5 121.125 C 635.25 124 632.875 126.75 630.375 129.375 Z M 630.375 129.375 "/>
<path style=" stroke:none;fill-rule:evenodd;fill:rgb(59.215686%,58.823529%,58.039216%);fill-opacity:1;" d="M 333.375 116.625 C 333.597656 115.046875 333.347656 113.546875 332.625 112.125 C 332.117188 112.953125 331.617188 113.703125 331.125 114.375 C 331.125 113.375 331.125 112.375 331.125 111.375 C 332.125 111.375 333.125 111.375 334.125 111.375 C 334.351562 113.292969 334.101562 115.042969 333.375 116.625 Z M 333.375 116.625 "/>
<path style=" stroke:none;fill-rule:evenodd;fill:rgb(67.45098%,67.058824%,66.27451%);fill-opacity:1;" d="M 385.125 114.375 C 383.324219 114.335938 381.574219 114.585938 379.875 115.125 C 380.484375 114.003906 381.484375 113.503906 382.875 113.625 C 383.792969 113.640625 384.542969 113.890625 385.125 114.375 Z M 385.125 114.375 "/>
<path style=" stroke:none;fill-rule:evenodd;fill:rgb(56.470588%,56.078431%,55.294118%);fill-opacity:1;" d="M 448.875 115.125 C 448.746094 111.542969 447.996094 111.292969 446.625 114.375 C 446.625 113.375 446.625 112.375 446.625 111.375 C 447.625 111.375 448.625 111.375 449.625 111.375 C 449.839844 112.8125 449.589844 114.0625 448.875 115.125 Z M 448.875 115.125 "/>
<path style=" stroke:none;fill-rule:evenodd;fill:rgb(29.803922%,29.411765%,27.843137%);fill-opacity:1;" d="M 541.125 116.625 C 538.941406 120.449219 538.445312 124.449219 539.625 128.625 C 539.707031 129.085938 539.957031 129.460938 540.375 129.75 C 544.0625 131.015625 546.3125 129.765625 547.125 126 C 547.835938 125.636719 548.585938 125.511719 549.375 125.625 C 548.257812 131.734375 544.757812 133.734375 538.875 131.625 C 537.085938 130.191406 536.335938 128.316406 536.625 126 C 536.425781 121.222656 537.675781 116.972656 540.375 113.25 C 544.066406 110.550781 547.441406 110.925781 550.5 114.375 C 550.871094 115.601562 550.996094 116.851562 550.875 118.125 C 550.125 118.125 549.375 118.125 548.625 118.125 C 548.246094 113.605469 545.996094 112.480469 541.875 114.75 C 541.3125 115.253906 541.058594 115.878906 541.125 116.625 Z M 541.125 116.625 "/>
<path style=" stroke:none;fill-rule:evenodd;fill:rgb(97.254902%,97.254902%,97.254902%);fill-opacity:1;" d="M 480.375 114.375 C 482.484375 116.878906 482.234375 119.253906 479.625 121.5 C 477.890625 121.871094 476.144531 121.996094 474.375 121.875 C 474.375 120.125 474.375 118.375 474.375 116.625 C 475.054688 116.09375 475.304688 115.34375 475.125 114.375 C 476.875 114.375 478.625 114.375 480.375 114.375 Z M 480.375 114.375 "/>
<path style=" stroke:none;fill-rule:evenodd;fill:rgb(96.470588%,96.470588%,96.470588%);fill-opacity:1;" d="M 524.625 114.375 C 526.882812 117.328125 526.382812 119.828125 523.125 121.875 C 521.875 121.875 520.625 121.875 519.375 121.875 C 519.375 120.125 519.375 118.375 519.375 116.625 C 520.054688 116.09375 520.304688 115.34375 520.125 114.375 C 521.625 114.375 523.125 114.375 524.625 114.375 Z M 524.625 114.375 "/>
<path style=" stroke:none;fill-rule:evenodd;fill:rgb(96.078431%,96.078431%,96.078431%);fill-opacity:1;" d="M 421.875 115.875 C 421.964844 119.425781 421.589844 122.921875 420.75 126.375 C 419.089844 130.253906 416.589844 131.003906 413.25 128.625 C 412.875 126.136719 412.75 123.636719 412.875 121.125 C 413.144531 116.226562 415.640625 113.855469 420.375 114 C 421.035156 114.53125 421.535156 115.15625 421.875 115.875 Z M 421.875 115.875 "/>
<path style=" stroke:none;fill-rule:evenodd;fill:rgb(65.882353%,65.882353%,65.098039%);fill-opacity:1;" d="M 480.375 113.625 C 480.375 113.875 480.375 114.125 480.375 114.375 C 478.625 114.375 476.875 114.375 475.125 114.375 C 475.304688 115.34375 475.054688 116.09375 474.375 116.625 C 474.375 115.625 474.375 114.625 474.375 113.625 C 476.375 113.625 478.375 113.625 480.375 113.625 Z M 480.375 113.625 "/>
<path style=" stroke:none;fill-rule:evenodd;fill:rgb(75.686275%,75.686275%,75.294118%);fill-opacity:1;" d="M 343.875 111.375 C 344.691406 116.550781 343.941406 121.550781 341.625 126.375 C 342.234375 121.347656 342.984375 116.351562 343.875 111.375 Z M 343.875 111.375 "/>
<path style=" stroke:none;fill-rule:evenodd;fill:rgb(56.862745%,56.470588%,55.686275%);fill-opacity:1;" d="M 388.125 114.375 C 388.847656 115.699219 389.097656 117.199219 388.875 118.875 C 387.90625 119.054688 387.15625 118.804688 386.625 118.125 C 387.941406 117.335938 388.441406 116.085938 388.125 114.375 Z M 388.125 114.375 "/>
<path style=" stroke:none;fill-rule:evenodd;fill:rgb(51.764706%,51.372549%,50.588235%);fill-opacity:1;" d="M 502.125 111.375 C 503.230469 114.6875 503.726562 118.191406 503.625 121.875 C 502.519531 118.5625 502.023438 115.058594 502.125 111.375 Z M 502.125 111.375 "/>
<path style=" stroke:none;fill-rule:evenodd;fill:rgb(40.784314%,40%,38.823529%);fill-opacity:1;" d="M 524.625 112.125 C 522.375 112.125 520.125 112.125 517.875 112.125 C 517.753906 113.894531 517.878906 115.640625 518.25 117.375 C 518.457031 116.6875 518.832031 116.1875 519.375 115.875 C 519.375 116.125 519.375 116.375 519.375 116.625 C 519.375 118.375 519.375 120.125 519.375 121.875 C 520.625 121.875 521.875 121.875 523.125 121.875 C 519.347656 123.664062 517.472656 122.414062 517.5 118.125 C 517.324219 119.054688 516.949219 119.804688 516.375 120.375 C 516.871094 117.402344 517.121094 114.402344 517.125 111.375 C 519.78125 111.140625 522.28125 111.390625 524.625 112.125 Z M 524.625 112.125 "/>
<path style=" stroke:none;fill-rule:evenodd;fill:rgb(51.764706%,51.372549%,50.588235%);fill-opacity:1;" d="M 436.125 112.875 C 436.40625 116.933594 435.65625 120.683594 433.875 124.125 C 434.234375 120.203125 434.984375 116.453125 436.125 112.875 Z M 436.125 112.875 "/>
<path style=" stroke:none;fill-rule:evenodd;fill:rgb(34.901961%,34.117647%,32.941176%);fill-opacity:1;" d="M 597.375 124.125 C 597.496094 122.355469 597.371094 120.609375 597 118.875 C 596.847656 121.347656 596.222656 123.597656 595.125 125.625 C 595.664062 120.839844 596.414062 116.089844 597.375 111.375 C 598.125 111.375 598.875 111.375 599.625 111.375 C 599.214844 115.78125 598.464844 120.03125 597.375 124.125 Z M 597.375 124.125 "/>
<path style=" stroke:none;fill-rule:evenodd;fill:rgb(23.921569%,23.137255%,21.568627%);fill-opacity:1;" d="M 480.375 112.125 C 480.625 112.125 480.875 112.125 481.125 112.125 C 481.253906 112.867188 481.003906 113.367188 480.375 113.625 C 478.375 113.625 476.375 113.625 474.375 113.625 C 474.375 114.625 474.375 115.625 474.375 116.625 C 473.644531 118.460938 473.394531 120.460938 473.625 122.625 C 476.035156 122.390625 478.285156 122.640625 480.375 123.375 C 477.792969 123.824219 475.292969 124.320312 472.875 124.875 C 472.460938 127.355469 472.210938 129.855469 472.125 132.375 C 471.375 132.375 470.625 132.375 469.875 132.375 C 469.875 130.875 469.875 129.375 469.875 127.875 C 470.625 124.375 471.375 120.875 472.125 117.375 C 472.851562 115.792969 473.101562 114.042969 472.875 112.125 C 475.375 112.125 477.875 112.125 480.375 112.125 Z M 480.375 112.125 "/>
<path style=" stroke:none;fill-rule:evenodd;fill:rgb(26.27451%,25.490196%,24.313725%);fill-opacity:1;" d="M 524.625 112.125 C 527.695312 112.320312 528.945312 113.949219 528.375 117 C 528.25 118.125 528.125 119.25 528 120.375 C 526.84375 121.777344 525.71875 123.152344 524.625 124.5 C 525.746094 126.480469 526.246094 128.605469 526.125 130.875 C 526.222656 131.53125 525.972656 132.03125 525.375 132.375 C 524.609375 131.324219 523.859375 130.324219 523.125 129.375 C 522.996094 127.605469 522.746094 125.855469 522.375 124.125 C 520.875 124.125 519.375 124.125 517.875 124.125 C 517.625 126.125 517.375 128.125 517.125 130.125 C 516.632812 130.796875 516.132812 131.546875 515.625 132.375 C 515.375 131.75 515.125 131.125 514.875 130.5 C 515.308594 128.898438 515.558594 127.273438 515.625 125.625 C 515.472656 123.789062 515.722656 122.039062 516.375 120.375 C 516.949219 119.804688 517.324219 119.054688 517.5 118.125 C 517.472656 122.414062 519.347656 123.664062 523.125 121.875 C 526.382812 119.828125 526.882812 117.328125 524.625 114.375 C 523.042969 113.648438 521.292969 113.398438 519.375 113.625 C 519.375 114.375 519.375 115.125 519.375 115.875 C 518.832031 116.1875 518.457031 116.6875 518.25 117.375 C 517.878906 115.640625 517.753906 113.894531 517.875 112.125 C 520.125 112.125 522.375 112.125 524.625 112.125 Z M 524.625 112.125 "/>
<path style=" stroke:none;fill-rule:evenodd;fill:rgb(65.882353%,65.490196%,65.098039%);fill-opacity:1;" d="M 524.625 114.375 C 523.125 114.375 521.625 114.375 520.125 114.375 C 520.304688 115.34375 520.054688 116.09375 519.375 116.625 C 519.375 116.375 519.375 116.125 519.375 115.875 C 519.375 115.125 519.375 114.375 519.375 113.625 C 521.292969 113.398438 523.042969 113.648438 524.625 114.375 Z M 524.625 114.375 "/>
<path style=" stroke:none;fill-rule:evenodd;fill:rgb(56.470588%,56.078431%,55.294118%);fill-opacity:1;" d="M 412.125 115.875 C 412.113281 117.421875 411.863281 118.921875 411.375 120.375 C 411.125 120.375 410.875 120.375 410.625 120.375 C 410.445312 118.578125 410.945312 117.078125 412.125 115.875 Z M 412.125 115.875 "/>
<path style=" stroke:none;fill-rule:evenodd;fill:rgb(76.078431%,75.686275%,75.294118%);fill-opacity:1;" d="M 439.875 121.875 C 439.386719 121.433594 438.886719 120.933594 438.375 120.375 C 437.867188 121.203125 437.367188 121.953125 436.875 122.625 C 436.875 121.625 436.875 120.625 436.875 119.625 C 437.367188 118.953125 437.867188 118.203125 438.375 117.375 C 439.566406 118.628906 440.066406 120.128906 439.875 121.875 Z M 439.875 121.875 "/>
<path style=" stroke:none;fill-rule:evenodd;fill:rgb(92.941176%,92.941176%,92.941176%);fill-opacity:1;" d="M 499.875 116.625 C 500.644531 119.230469 501.144531 121.980469 501.375 124.875 C 499.4375 125.230469 497.9375 124.730469 496.875 123.375 C 497.683594 121.015625 498.683594 118.765625 499.875 116.625 Z M 499.875 116.625 "/>
<path style=" stroke:none;fill-rule:evenodd;fill:rgb(54.117647%,53.72549%,52.54902%);fill-opacity:1;" d="M 154.125 118.875 C 155.433594 120.023438 156.183594 121.523438 156.375 123.375 C 155.066406 122.226562 154.316406 120.726562 154.125 118.875 Z M 154.125 118.875 "/>
<path style=" stroke:none;fill-rule:evenodd;fill:rgb(47.45098%,47.058824%,45.882353%);fill-opacity:1;" d="M 247.875 118.875 C 249.902344 120.082031 252.152344 120.832031 254.625 121.125 C 252.125 121.125 249.625 121.125 247.125 121.125 C 246.945312 120.15625 247.195312 119.40625 247.875 118.875 Z M 247.875 118.875 "/>
<path style=" stroke:none;fill-rule:evenodd;fill:rgb(69.803922%,69.411765%,69.019608%);fill-opacity:1;" d="M 313.875 115.125 C 314.164062 118.117188 313.664062 120.867188 312.375 123.375 C 312.605469 120.480469 313.105469 117.730469 313.875 115.125 Z M 313.875 115.125 "/>
<path style=" stroke:none;fill-rule:evenodd;fill:rgb(29.803922%,29.411765%,27.843137%);fill-opacity:1;" d="M 400.875 118.125 C 399.816406 121.972656 399.066406 125.972656 398.625 130.125 C 398.625 130.875 398.625 131.625 398.625 132.375 C 397.875 132.375 397.125 132.375 396.375 132.375 C 396.375 131.375 396.375 130.375 396.375 129.375 C 397.4375 123.9375 398.3125 118.4375 399 112.875 C 399.53125 111.769531 400.40625 111.269531 401.625 111.375 C 401.617188 113.660156 401.371094 115.910156 400.875 118.125 Z M 400.875 118.125 "/>
<path style=" stroke:none;fill-rule:evenodd;fill:rgb(25.098039%,24.313725%,22.745098%);fill-opacity:1;" d="M 423.375 113.625 C 424.292969 118.109375 424.292969 122.609375 423.375 127.125 C 423.125 127.125 422.875 127.125 422.625 127.125 C 422.621094 123.386719 422.371094 119.636719 421.875 115.875 C 421.535156 115.15625 421.035156 114.53125 420.375 114 C 415.640625 113.855469 413.144531 116.226562 412.875 121.125 C 412.273438 122.214844 411.898438 123.464844 411.75 124.875 C 411.378906 123.394531 411.253906 121.894531 411.375 120.375 C 411.863281 118.921875 412.113281 117.421875 412.125 115.875 C 415.105469 110.980469 418.855469 110.230469 423.375 113.625 Z M 423.375 113.625 "/>
<path style=" stroke:none;fill-rule:evenodd;fill:rgb(32.156863%,31.372549%,30.196078%);fill-opacity:1;" d="M 362.625 119.625 C 363.675781 123.289062 364.175781 127.039062 364.125 130.875 C 363.1875 128.292969 362.5625 125.542969 362.25 122.625 C 362.074219 123.554688 361.699219 124.304688 361.125 124.875 C 359.289062 125.605469 357.289062 125.855469 355.125 125.625 C 355.285156 124.367188 354.785156 123.617188 353.625 123.375 C 354.996094 119.636719 356.746094 116.136719 358.875 112.875 C 359.867188 111.863281 360.617188 111.988281 361.125 113.25 C 361.527344 115.496094 362.027344 117.621094 362.625 119.625 Z M 362.625 119.625 "/>
<path style=" stroke:none;fill-rule:evenodd;fill:rgb(94.509804%,94.117647%,94.117647%);fill-opacity:1;" d="M 358.875 118.125 C 360.089844 120.128906 360.589844 122.378906 360.375 124.875 C 358.875 124.875 357.375 124.875 355.875 124.875 C 356.265625 122.339844 357.265625 120.089844 358.875 118.125 Z M 358.875 118.125 "/>
<path style=" stroke:none;fill-rule:evenodd;fill:rgb(31.372549%,30.588235%,29.411765%);fill-opacity:1;" d="M 448.875 115.125 C 447.816406 120.832031 447.066406 126.582031 446.625 132.375 C 445.390625 132.535156 444.265625 132.285156 443.25 131.625 C 442.261719 128.253906 441.136719 125.003906 439.875 121.875 C 440.066406 120.128906 439.566406 118.628906 438.375 117.375 C 437.867188 118.203125 437.367188 118.953125 436.875 119.625 C 436.875 118.625 436.875 117.625 436.875 116.625 C 437.625 116.625 438.375 116.625 439.125 116.625 C 439.125 115.625 439.125 114.625 439.125 113.625 C 440.664062 117.605469 442.289062 121.605469 444 125.625 C 445.515625 122.03125 446.390625 118.28125 446.625 114.375 C 447.996094 111.292969 448.746094 111.542969 448.875 115.125 Z M 448.875 115.125 "/>
<path style=" stroke:none;fill-rule:evenodd;fill:rgb(34.117647%,33.333333%,32.156863%);fill-opacity:1;" d="M 481.125 112.125 C 483.871094 114.121094 484.746094 116.875 483.75 120.375 C 483.253906 121.742188 482.378906 122.742188 481.125 123.375 C 480.875 123.375 480.625 123.375 480.375 123.375 C 478.285156 122.640625 476.035156 122.390625 473.625 122.625 C 473.394531 120.460938 473.644531 118.460938 474.375 116.625 C 474.375 118.375 474.375 120.125 474.375 121.875 C 476.144531 121.996094 477.890625 121.871094 479.625 121.5 C 482.234375 119.253906 482.484375 116.878906 480.375 114.375 C 480.375 114.125 480.375 113.875 480.375 113.625 C 481.003906 113.367188 481.253906 112.867188 481.125 112.125 Z M 481.125 112.125 "/>
<path style=" stroke:none;fill-rule:evenodd;fill:rgb(21.960784%,21.176471%,19.607843%);fill-opacity:1;" d="M 364.125 130.875 C 363.882812 132.035156 363.132812 132.535156 361.875 132.375 C 362.097656 130.699219 361.847656 129.199219 361.125 127.875 C 358.734375 126.894531 356.234375 126.894531 353.625 127.875 C 353.15625 128.5625 352.902344 129.3125 352.875 130.125 C 352.226562 130.847656 351.726562 130.847656 351.375 130.125 C 351.980469 128.945312 352.230469 127.695312 352.125 126.375 C 352.246094 125.136719 352.746094 124.136719 353.625 123.375 C 354.785156 123.617188 355.285156 124.367188 355.125 125.625 C 357.289062 125.855469 359.289062 125.605469 361.125 124.875 C 361.699219 124.304688 362.074219 123.554688 362.25 122.625 C 362.5625 125.542969 363.1875 128.292969 364.125 130.875 Z M 364.125 130.875 "/>
<path style=" stroke:none;fill-rule:evenodd;fill:rgb(32.54902%,31.764706%,30.196078%);fill-opacity:1;" d="M 313.875 113.625 C 313.875 114.125 313.875 114.625 313.875 115.125 C 313.105469 117.730469 312.605469 120.480469 312.375 123.375 C 311.777344 125.574219 311.527344 127.824219 311.625 130.125 C 314.28125 129.890625 316.78125 130.140625 319.125 130.875 C 316.375 130.875 313.625 130.875 310.875 130.875 C 310.996094 129.601562 310.871094 128.351562 310.5 127.125 C 310.21875 128.617188 309.59375 129.867188 308.625 130.875 C 309.339844 125.296875 310.339844 119.796875 311.625 114.375 C 312.117188 113.703125 312.617188 112.953125 313.125 112.125 C 313.722656 112.46875 313.972656 112.96875 313.875 113.625 Z M 313.875 113.625 "/>
<path style=" stroke:none;fill-rule:evenodd;fill:rgb(67.843137%,67.843137%,67.058824%);fill-opacity:1;" d="M 400.875 118.125 C 401.078125 122.410156 400.328125 126.410156 398.625 130.125 C 399.066406 125.972656 399.816406 121.972656 400.875 118.125 Z M 400.875 118.125 "/>
<path style=" stroke:none;fill-rule:evenodd;fill:rgb(28.235294%,27.45098%,26.27451%);fill-opacity:1;" d="M 294.375 111.375 C 295.125 111.375 295.875 111.375 296.625 111.375 C 297.503906 118.636719 298.503906 125.886719 299.625 133.125 C 298.632812 133.253906 297.757812 133.003906 297 132.375 C 296.628906 130.894531 296.503906 129.394531 296.625 127.875 C 293.832031 127.632812 291.082031 127.882812 288.375 128.625 C 287.875 129.625 287.375 130.625 286.875 131.625 C 286.125 132.625 285.375 132.625 284.625 131.625 C 287.679688 124.765625 290.929688 118.015625 294.375 111.375 Z M 294.375 111.375 "/>
<path style=" stroke:none;fill-rule:evenodd;fill:rgb(59.607843%,59.215686%,58.039216%);fill-opacity:1;" d="M 295.875 120.375 C 295.28125 119.542969 294.90625 118.542969 294.75 117.375 C 294.460938 117.792969 294.085938 118.042969 293.625 118.125 C 293.597656 117.183594 293.972656 116.433594 294.75 115.875 C 295.738281 117.1875 296.113281 118.6875 295.875 120.375 Z M 295.875 120.375 "/>
<path style=" stroke:none;fill-rule:evenodd;fill:rgb(93.333333%,93.333333%,92.941176%);fill-opacity:1;" d="M 295.875 120.375 C 295.875 121.875 295.875 123.375 295.875 124.875 C 294.375 124.875 292.875 124.875 291.375 124.875 C 291.394531 122.3125 292.144531 120.0625 293.625 118.125 C 294.085938 118.042969 294.460938 117.792969 294.75 117.375 C 294.90625 118.542969 295.28125 119.542969 295.875 120.375 Z M 295.875 120.375 "/>
<path style=" stroke:none;fill-rule:evenodd;fill:rgb(21.176471%,20.392157%,18.823529%);fill-opacity:1;" d="M 333.375 116.625 C 333.375 116.875 333.375 117.125 333.375 117.375 C 332.316406 119.414062 331.816406 121.664062 331.875 124.125 C 331.265625 125.722656 330.890625 127.472656 330.75 129.375 C 330.523438 124.871094 330.648438 120.371094 331.125 115.875 C 331.125 115.375 331.125 114.875 331.125 114.375 C 331.617188 113.703125 332.117188 112.953125 332.625 112.125 C 333.347656 113.546875 333.597656 115.046875 333.375 116.625 Z M 333.375 116.625 "/>
<path style=" stroke:none;fill-rule:evenodd;fill:rgb(70.980392%,70.588235%,70.196078%);fill-opacity:1;" d="M 361.125 124.875 C 360.875 124.875 360.625 124.875 360.375 124.875 C 360.589844 122.378906 360.089844 120.128906 358.875 118.125 C 358.710938 117.242188 358.960938 116.492188 359.625 115.875 C 360.859375 118.738281 361.359375 121.738281 361.125 124.875 Z M 361.125 124.875 "/>
<path style=" stroke:none;fill-rule:evenodd;fill:rgb(66.27451%,65.882353%,65.098039%);fill-opacity:1;" d="M 480.375 123.375 C 480.625 123.375 480.875 123.375 481.125 123.375 C 481.042969 123.835938 480.792969 124.210938 480.375 124.5 C 477.886719 124.875 475.386719 125 472.875 124.875 C 475.292969 124.320312 477.792969 123.824219 480.375 123.375 Z M 480.375 123.375 "/>
<path style=" stroke:none;fill-rule:evenodd;fill:rgb(55.686275%,55.294118%,54.509804%);fill-opacity:1;" d="M 499.875 116.625 C 499.921875 116.21875 500.167969 115.96875 500.625 115.875 C 501.683594 119.039062 502.183594 122.289062 502.125 125.625 C 500.125 125.625 498.125 125.625 496.125 125.625 C 495.945312 124.65625 496.195312 123.90625 496.875 123.375 C 497.9375 124.730469 499.4375 125.230469 501.375 124.875 C 501.144531 121.980469 500.644531 119.230469 499.875 116.625 Z M 499.875 116.625 "/>
<path style=" stroke:none;fill-rule:evenodd;fill:rgb(25.490196%,24.705882%,23.137255%);fill-opacity:1;" d="M 584.625 129.375 C 584.625 130.375 584.625 131.375 584.625 132.375 C 583.875 132.375 583.125 132.375 582.375 132.375 C 582.375 131.125 582.375 129.875 582.375 128.625 C 581.480469 127.667969 580.230469 127.167969 578.625 127.125 C 577.222656 127.128906 575.972656 127.378906 574.875 127.875 C 573.957031 128.953125 573.207031 130.203125 572.625 131.625 C 572.007812 132.289062 571.257812 132.539062 570.375 132.375 C 573.03125 125.8125 575.90625 119.3125 579 112.875 C 579.832031 111.722656 580.957031 111.222656 582.375 111.375 C 582.929688 117.40625 583.679688 123.40625 584.625 129.375 Z M 584.625 129.375 "/>
<path style=" stroke:none;fill-rule:evenodd;fill:rgb(64.313725%,63.921569%,63.529412%);fill-opacity:1;" d="M 580.875 118.125 C 581.609375 120.46875 581.859375 122.96875 581.625 125.625 C 579.707031 125.851562 577.957031 125.601562 576.375 124.875 C 577.875 124.875 579.375 124.875 580.875 124.875 C 580.875 122.625 580.875 120.375 580.875 118.125 Z M 580.875 118.125 "/>
<path style=" stroke:none;fill-rule:evenodd;fill:rgb(91.372549%,91.372549%,90.980392%);fill-opacity:1;" d="M 580.875 118.125 C 580.875 120.375 580.875 122.625 580.875 124.875 C 579.375 124.875 577.875 124.875 576.375 124.875 C 577.132812 121.609375 578.507812 118.609375 580.5 115.875 C 580.863281 116.585938 580.988281 117.335938 580.875 118.125 Z M 580.875 118.125 "/>
<path style=" stroke:none;fill-rule:evenodd;fill:rgb(78.431373%,78.039216%,77.647059%);fill-opacity:1;" d="M 378.375 117.375 C 378.289062 121.136719 378.039062 124.886719 377.625 128.625 C 377.128906 127.398438 376.878906 126.023438 376.875 124.5 C 376.816406 121.910156 377.316406 119.535156 378.375 117.375 Z M 378.375 117.375 "/>
<path style=" stroke:none;fill-rule:evenodd;fill:rgb(71.764706%,71.372549%,70.980392%);fill-opacity:1;" d="M 541.125 116.625 C 540.023438 120.535156 539.523438 124.535156 539.625 128.625 C 538.445312 124.449219 538.941406 120.449219 541.125 116.625 Z M 541.125 116.625 "/>
<path style=" stroke:none;fill-rule:evenodd;fill:rgb(58.823529%,58.431373%,57.647059%);fill-opacity:1;" d="M 156.375 124.875 C 157.683594 126.023438 158.433594 127.523438 158.625 129.375 C 157.316406 128.226562 156.566406 126.726562 156.375 124.875 Z M 156.375 124.875 "/>
<path style=" stroke:none;fill-rule:evenodd;fill:rgb(69.019608%,68.627451%,67.843137%);fill-opacity:1;" d="M 423.375 113.625 C 423.835938 113.707031 424.210938 113.957031 424.5 114.375 C 424.625 116.125 424.75 117.875 424.875 119.625 C 425.015625 122.355469 424.515625 124.855469 423.375 127.125 C 424.292969 122.609375 424.292969 118.109375 423.375 113.625 Z M 423.375 113.625 "/>
<path style=" stroke:none;fill-rule:evenodd;fill:rgb(55.686275%,55.294118%,54.509804%);fill-opacity:1;" d="M 103.875 125.625 C 104.929688 125.980469 105.429688 126.730469 105.375 127.875 C 104.320312 127.519531 103.820312 126.769531 103.875 125.625 Z M 103.875 125.625 "/>
<path style=" stroke:none;fill-rule:evenodd;fill:rgb(24.705882%,23.921569%,22.745098%);fill-opacity:1;" d="M 256.875 113.625 C 254.125 113.625 251.375 113.625 248.625 113.625 C 248.253906 115.355469 248.003906 117.105469 247.875 118.875 C 247.195312 119.40625 246.945312 120.15625 247.125 121.125 C 249.625 121.125 252.125 121.125 254.625 121.125 C 252.339844 122.339844 249.839844 123.089844 247.125 123.375 C 246.3125 125.71875 245.816406 128.21875 245.625 130.875 C 248.738281 130.441406 251.488281 130.941406 253.875 132.375 C 250.523438 133.113281 247.023438 133.363281 243.375 133.125 C 243.972656 126.789062 244.972656 120.535156 246.375 114.375 C 247.054688 113.84375 247.304688 113.09375 247.125 112.125 C 250.71875 111.675781 253.96875 112.175781 256.875 113.625 Z M 256.875 113.625 "/>
<path style=" stroke:none;fill-rule:evenodd;fill:rgb(64.313725%,64.313725%,63.529412%);fill-opacity:1;" d="M 361.125 127.875 C 358.875 127.875 356.625 127.875 354.375 127.875 C 354.535156 129.132812 354.035156 129.882812 352.875 130.125 C 352.902344 129.3125 353.15625 128.5625 353.625 127.875 C 356.234375 126.894531 358.734375 126.894531 361.125 127.875 Z M 361.125 127.875 "/>
<path style=" stroke:none;fill-rule:evenodd;fill:rgb(36.862745%,36.078431%,34.901961%);fill-opacity:1;" d="M 421.875 115.875 C 422.371094 119.636719 422.621094 123.386719 422.625 127.125 C 420.980469 131.824219 417.730469 133.574219 412.875 132.375 C 409.890625 128.746094 409.140625 124.746094 410.625 120.375 C 410.875 120.375 411.125 120.375 411.375 120.375 C 411.253906 121.894531 411.378906 123.394531 411.75 124.875 C 411.898438 123.464844 412.273438 122.214844 412.875 121.125 C 412.75 123.636719 412.875 126.136719 413.25 128.625 C 416.589844 131.003906 419.089844 130.253906 420.75 126.375 C 421.589844 122.921875 421.964844 119.425781 421.875 115.875 Z M 421.875 115.875 "/>
<path style=" stroke:none;fill-rule:evenodd;fill:rgb(60.392157%,60%,59.215686%);fill-opacity:1;" d="M 574.875 127.875 C 575.972656 127.378906 577.222656 127.128906 578.625 127.125 C 580.230469 127.167969 581.480469 127.667969 582.375 128.625 C 579.953125 127.941406 577.453125 127.691406 574.875 127.875 Z M 574.875 127.875 "/>
<path style=" stroke:none;fill-rule:evenodd;fill:rgb(61.568627%,61.176471%,60.392157%);fill-opacity:1;" d="M 123.375 124.125 C 124.683594 125.273438 125.433594 126.773438 125.625 128.625 C 124.316406 127.476562 123.566406 125.976562 123.375 124.125 Z M 123.375 124.125 "/>
<path style=" stroke:none;fill-rule:evenodd;fill:rgb(56.862745%,56.470588%,55.686275%);fill-opacity:1;" d="M 150.375 126.375 C 151.429688 126.730469 151.929688 127.480469 151.875 128.625 C 150.820312 128.269531 150.320312 127.519531 150.375 126.375 Z M 150.375 126.375 "/>
<path style=" stroke:none;fill-rule:evenodd;fill:rgb(20.392157%,19.607843%,18.039216%);fill-opacity:1;" d="M 319.125 130.875 C 317.703125 131.855469 315.953125 132.351562 313.875 132.375 C 311.796875 132.351562 310.046875 131.855469 308.625 130.875 C 309.59375 129.867188 310.21875 128.617188 310.5 127.125 C 310.871094 128.351562 310.996094 129.601562 310.875 130.875 C 313.625 130.875 316.375 130.875 319.125 130.875 Z M 319.125 130.875 "/>
<path style=" stroke:none;fill-rule:evenodd;fill:rgb(20.392157%,19.607843%,18.039216%);fill-opacity:1;" d="M 597.375 124.125 C 597.375 125.375 597.375 126.625 597.375 127.875 C 596.675781 128.675781 596.425781 129.675781 596.625 130.875 C 599.171875 130.636719 601.675781 130.882812 604.125 131.625 C 600.914062 132.367188 597.664062 132.621094 594.375 132.375 C 594.746094 130.644531 594.996094 128.894531 595.125 127.125 C 595.125 126.625 595.125 126.125 595.125 125.625 C 596.222656 123.597656 596.847656 121.347656 597 118.875 C 597.371094 120.609375 597.496094 122.355469 597.375 124.125 Z M 597.375 124.125 "/>
<path style=" stroke:none;fill-rule:evenodd;fill:rgb(26.666667%,25.882353%,24.313725%);fill-opacity:1;" d="M 265.875 111.375 C 266.625 111.375 267.375 111.375 268.125 111.375 C 268.734375 116.890625 269.484375 122.390625 270.375 127.875 C 272.679688 122.574219 275.054688 117.324219 277.5 112.125 C 278.386719 111.203125 279.261719 111.203125 280.125 112.125 C 277.125 118.625 274.125 125.125 271.125 131.625 C 270.234375 132.320312 269.234375 132.570312 268.125 132.375 C 267.746094 125.332031 266.996094 118.332031 265.875 111.375 Z M 265.875 111.375 "/>
<path style=" stroke:none;fill-rule:evenodd;fill:rgb(52.156863%,51.764706%,50.588235%);fill-opacity:1;" d="M 116.625 125.625 C 117.933594 126.773438 118.683594 128.273438 118.875 130.125 C 117.566406 128.976562 116.816406 127.476562 116.625 125.625 Z M 116.625 125.625 "/>
<path style=" stroke:none;fill-rule:evenodd;fill:rgb(30.980392%,30.196078%,29.019608%);fill-opacity:1;" d="M 343.875 111.375 C 342.984375 116.351562 342.234375 121.347656 341.625 126.375 C 341.125 127.875 340.625 129.375 340.125 130.875 C 337.726562 131.839844 335.226562 132.339844 332.625 132.375 C 331.445312 132.046875 330.570312 131.296875 330 130.125 C 329.316406 125.183594 329.691406 120.4375 331.125 115.875 C 330.648438 120.371094 330.523438 124.871094 330.75 129.375 C 330.890625 127.472656 331.265625 125.722656 331.875 124.125 C 331.648438 126.042969 331.898438 127.792969 332.625 129.375 C 334.605469 130.484375 336.480469 130.234375 338.25 128.625 C 339.695312 122.949219 340.820312 117.199219 341.625 111.375 C 342.375 111.375 343.125 111.375 343.875 111.375 Z M 343.875 111.375 "/>
<path style=" stroke:none;fill-rule:evenodd;fill:rgb(76.078431%,76.078431%,75.686275%);fill-opacity:1;" d="M 333.375 117.375 C 333.125 121.375 332.875 125.375 332.625 129.375 C 331.898438 127.792969 331.648438 126.042969 331.875 124.125 C 331.816406 121.664062 332.316406 119.414062 333.375 117.375 Z M 333.375 117.375 "/>
<path style=" stroke:none;fill-rule:evenodd;fill:rgb(61.960784%,61.568627%,60.784314%);fill-opacity:1;" d="M 247.125 123.375 C 247.332031 125.585938 247.082031 127.710938 246.375 129.75 C 249.113281 130.125 251.863281 130.25 254.625 130.125 C 254.804688 131.09375 254.554688 131.84375 253.875 132.375 C 251.488281 130.941406 248.738281 130.441406 245.625 130.875 C 245.816406 128.21875 246.3125 125.71875 247.125 123.375 Z M 247.125 123.375 "/>
<path style=" stroke:none;fill-rule:evenodd;fill:rgb(56.470588%,56.078431%,54.901961%);fill-opacity:1;" d="M 105.375 129.375 C 106.683594 130.523438 107.433594 132.023438 107.625 133.875 C 106.316406 132.726562 105.566406 131.226562 105.375 129.375 Z M 105.375 129.375 "/>
<path style=" stroke:none;fill-rule:evenodd;fill:rgb(56.470588%,56.078431%,55.294118%);fill-opacity:1;" d="M 131.625 129.375 C 132.933594 130.523438 133.683594 132.023438 133.875 133.875 C 132.566406 132.726562 131.816406 131.226562 131.625 129.375 Z M 131.625 129.375 "/>
<path style=" stroke:none;fill-rule:evenodd;fill:rgb(38.823529%,38.431373%,37.254902%);fill-opacity:1;" d="M 352.125 126.375 C 352.230469 127.695312 351.980469 128.945312 351.375 130.125 C 351.726562 130.847656 352.226562 130.847656 352.875 130.125 C 352.484375 132.539062 351.234375 133.289062 349.125 132.375 C 350.160156 130.304688 351.160156 128.304688 352.125 126.375 Z M 352.125 126.375 "/>
<path style=" stroke:none;fill-rule:evenodd;fill:rgb(40.784314%,40%,38.823529%);fill-opacity:1;" d="M 503.625 123.375 C 504.789062 126.425781 505.289062 129.675781 505.125 133.125 C 504.132812 133.253906 503.257812 133.003906 502.5 132.375 C 502.128906 130.894531 502.003906 129.394531 502.125 127.875 C 502.71875 128.707031 503.09375 129.707031 503.25 130.875 C 503.625 128.386719 503.75 125.886719 503.625 123.375 Z M 503.625 123.375 "/>
<path style=" stroke:none;fill-rule:evenodd;fill:rgb(69.411765%,69.411765%,68.627451%);fill-opacity:1;" d="M 125.625 129.375 C 126.796875 130.882812 127.546875 132.632812 127.875 134.625 C 126.125 133.367188 125.375 131.617188 125.625 129.375 Z M 125.625 129.375 "/>
<path style=" stroke:none;fill-rule:evenodd;fill:rgb(57.647059%,57.254902%,56.470588%);fill-opacity:1;" d="M 151.875 130.125 C 153.183594 131.273438 153.933594 132.773438 154.125 134.625 C 152.816406 133.476562 152.066406 131.976562 151.875 130.125 Z M 151.875 130.125 "/>
<path style=" stroke:none;fill-rule:evenodd;fill:rgb(69.411765%,69.019608%,68.627451%);fill-opacity:1;" d="M 396.375 129.375 C 396.375 130.375 396.375 131.375 396.375 132.375 C 397.125 132.375 397.875 132.375 398.625 132.375 C 397.824219 133.074219 396.824219 133.324219 395.625 133.125 C 395.410156 131.6875 395.660156 130.4375 396.375 129.375 Z M 396.375 129.375 "/>
<path style=" stroke:none;fill-rule:evenodd;fill:rgb(69.019608%,69.019608%,68.235294%);fill-opacity:1;" d="M 584.625 129.375 C 585.339844 130.4375 585.589844 131.6875 585.375 133.125 C 584.175781 133.324219 583.175781 133.074219 582.375 132.375 C 583.125 132.375 583.875 132.375 584.625 132.375 C 584.625 131.375 584.625 130.375 584.625 129.375 Z M 584.625 129.375 "/>
<path style=" stroke:none;fill-rule:evenodd;fill:rgb(49.019608%,48.235294%,47.45098%);fill-opacity:1;" d="M 118.875 130.125 C 119.902344 131.953125 120.652344 133.953125 121.125 136.125 C 119.507812 134.539062 118.757812 132.535156 118.875 130.125 Z M 118.875 130.125 "/>
<path style=" stroke:none;fill-rule:evenodd;fill:rgb(70.980392%,70.588235%,70.196078%);fill-opacity:1;" d="M 158.625 130.125 C 160.300781 133.140625 161.550781 136.390625 162.375 139.875 C 161.914062 139.792969 161.539062 139.542969 161.25 139.125 C 160.136719 136.164062 159.261719 133.164062 158.625 130.125 Z M 158.625 130.125 "/>
<path style=" stroke:none;fill-rule:evenodd;fill:rgb(62.745098%,62.352941%,61.960784%);fill-opacity:1;" d="M 340.125 130.875 C 339.488281 131.972656 338.488281 132.601562 337.125 132.75 C 335.464844 133.339844 333.964844 133.214844 332.625 132.375 C 335.226562 132.339844 337.726562 131.839844 340.125 130.875 Z M 340.125 130.875 "/>
<path style=" stroke:none;fill-rule:evenodd;fill:rgb(61.568627%,61.176471%,60.392157%);fill-opacity:1;" d="M 376.875 131.625 C 378.574219 132.164062 380.324219 132.414062 382.125 132.375 C 381.542969 132.859375 380.792969 133.109375 379.875 133.125 C 378.484375 133.246094 377.484375 132.746094 376.875 131.625 Z M 376.875 131.625 "/>
<path style=" stroke:none;fill-rule:evenodd;fill:rgb(58.039216%,57.647059%,56.470588%);fill-opacity:1;" d="M 433.875 125.625 C 433.75 127.886719 433.875 130.136719 434.25 132.375 C 434.816406 131.015625 435.441406 129.765625 436.125 128.625 C 436.613281 131.671875 435.363281 133.171875 432.375 133.125 C 432.566406 130.46875 433.0625 127.96875 433.875 125.625 Z M 433.875 125.625 "/>
<path style=" stroke:none;fill-rule:evenodd;fill:rgb(65.490196%,65.098039%,64.705882%);fill-opacity:1;" d="M 469.875 127.875 C 469.875 129.375 469.875 130.875 469.875 132.375 C 470.625 132.375 471.375 132.375 472.125 132.375 C 471.324219 133.074219 470.324219 133.324219 469.125 133.125 C 468.898438 131.207031 469.148438 129.457031 469.875 127.875 Z M 469.875 127.875 "/>
<path style=" stroke:none;fill-rule:evenodd;fill:rgb(61.176471%,60.784314%,60.392157%);fill-opacity:1;" d="M 515.625 125.625 C 515.558594 127.273438 515.308594 128.898438 514.875 130.5 C 515.125 131.125 515.375 131.75 515.625 132.375 C 516.132812 131.546875 516.632812 130.796875 517.125 130.125 C 517.125 131.125 517.125 132.125 517.125 133.125 C 516.125 133.125 515.125 133.125 514.125 133.125 C 513.871094 130.378906 514.367188 127.878906 515.625 125.625 Z M 515.625 125.625 "/>
<path style=" stroke:none;fill-rule:evenodd;fill:rgb(61.568627%,61.176471%,60.392157%);fill-opacity:1;" d="M 523.125 129.375 C 523.859375 130.324219 524.609375 131.324219 525.375 132.375 C 525.972656 132.03125 526.222656 131.53125 526.125 130.875 C 526.804688 131.40625 527.054688 132.15625 526.875 133.125 C 523.875 133.625 522.625 132.375 523.125 129.375 Z M 523.125 129.375 "/>
<path style=" stroke:none;fill-rule:evenodd;fill:rgb(59.215686%,59.215686%,58.431373%);fill-opacity:1;" d="M 595.125 127.125 C 594.996094 128.894531 594.746094 130.644531 594.375 132.375 C 597.664062 132.621094 600.914062 132.367188 604.125 131.625 C 601.675781 130.882812 599.171875 130.636719 596.625 130.875 C 596.425781 129.675781 596.675781 128.675781 597.375 127.875 C 597.375 128.625 597.375 129.375 597.375 130.125 C 599.875 130.125 602.375 130.125 604.875 130.125 C 604.875 131.125 604.875 132.125 604.875 133.125 C 601.125 133.125 597.375 133.125 593.625 133.125 C 593.46875 130.878906 593.96875 128.878906 595.125 127.125 Z M 595.125 127.125 "/>
<path style=" stroke:none;fill-rule:evenodd;fill:rgb(58.823529%,58.431373%,57.647059%);fill-opacity:1;" d="M 630.375 129.375 C 632.71875 130.109375 635.21875 130.359375 637.875 130.125 C 637.875 131.125 637.875 132.125 637.875 133.125 C 633.875 133.125 629.875 133.125 625.875 133.125 C 625.695312 132.15625 625.945312 131.40625 626.625 130.875 C 628.046875 131.855469 629.796875 132.351562 631.875 132.375 C 633.625 132.125 635.375 131.875 637.125 131.625 C 634.625 131.125 632.125 130.625 629.625 130.125 C 629.71875 129.667969 629.96875 129.421875 630.375 129.375 Z M 630.375 129.375 "/>
<path style=" stroke:none;fill-rule:evenodd;fill:rgb(58.431373%,58.039216%,57.254902%);fill-opacity:1;" d="M 177.375 130.125 C 178.683594 131.273438 179.433594 132.773438 179.625 134.625 C 178.316406 133.476562 177.566406 131.976562 177.375 130.125 Z M 177.375 130.125 "/>
<path style=" stroke:none;fill-rule:evenodd;fill:rgb(67.45098%,67.058824%,66.666667%);fill-opacity:1;" d="M 107.625 134.625 C 108.796875 136.132812 109.546875 137.882812 109.875 139.875 C 108.125 138.617188 107.375 136.867188 107.625 134.625 Z M 107.625 134.625 "/>
<path style=" stroke:none;fill-rule:evenodd;fill:rgb(63.137255%,62.352941%,61.960784%);fill-opacity:1;" d="M 179.625 134.625 C 180.652344 136.453125 181.402344 138.453125 181.875 140.625 C 180.257812 139.039062 179.507812 137.035156 179.625 134.625 Z M 179.625 134.625 "/>
<path style=" stroke:none;fill-rule:evenodd;fill:rgb(45.490196%,45.098039%,43.921569%);fill-opacity:1;" d="M 154.125 135.375 C 155.550781 137.636719 156.550781 140.136719 157.125 142.875 C 155.328125 140.769531 154.328125 138.269531 154.125 135.375 Z M 154.125 135.375 "/>
<path style=" stroke:none;fill-rule:evenodd;fill:rgb(67.843137%,67.45098%,67.058824%);fill-opacity:1;" d="M 181.875 140.625 C 183.152344 143.203125 184.152344 145.953125 184.875 148.875 C 183.007812 146.53125 182.007812 143.78125 181.875 140.625 Z M 181.875 140.625 "/>
<path style=" stroke:none;fill-rule:evenodd;fill:rgb(64.313725%,63.921569%,63.529412%);fill-opacity:1;" d="M 145.125 145.125 C 146.152344 146.953125 146.902344 148.953125 147.375 151.125 C 145.757812 149.539062 145.007812 147.535156 145.125 145.125 Z M 145.125 145.125 "/>
<path style=" stroke:none;fill-rule:evenodd;fill:rgb(66.27451%,65.882353%,65.098039%);fill-opacity:1;" d="M 147.375 151.125 C 148.402344 152.953125 149.152344 154.953125 149.625 157.125 C 148.007812 155.539062 147.257812 153.535156 147.375 151.125 Z M 147.375 151.125 "/>
<path style=" stroke:none;fill-rule:evenodd;fill:rgb(75.294118%,75.294118%,74.509804%);fill-opacity:1;" d="M 165.375 165.375 C 162.265625 167.121094 158.890625 168.371094 155.25 169.125 C 154.21875 168.988281 153.59375 168.488281 153.375 167.625 C 153.949219 167.941406 154.574219 168.191406 155.25 168.375 C 158.480469 166.839844 161.855469 165.839844 165.375 165.375 Z M 165.375 165.375 "/>
<path style=" stroke:none;fill-rule:evenodd;fill:rgb(73.72549%,73.333333%,72.941176%);fill-opacity:1;" d="M 135.375 174.375 C 136.96875 175.027344 137.09375 175.777344 135.75 176.625 C 132.707031 177.964844 129.582031 178.964844 126.375 179.625 C 128.859375 177.957031 131.609375 176.707031 134.625 175.875 C 135.222656 175.53125 135.472656 175.03125 135.375 174.375 Z M 135.375 174.375 "/>
</g>
</svg>
